<?xml version="1.0" encoding="UTF-8"?>
<svg xmlns="http://www.w3.org/2000/svg" xmlns:xlink="http://www.w3.org/1999/xlink" version="1.1" viewBox="0 0 1199.45 1972.66">
  <!-- Generator: Adobe Illustrator 30.6.0, SVG Export Plug-In . SVG Version: 2.1.4 Build 90)  -->
  <defs>
    <style>
      .st0 {
        fill: url(#linear-gradient9);
      }

      .st1 {
        fill: url(#linear-gradient3);
      }

      .st2 {
        fill: url(#linear-gradient7);
      }

      .st3 {
        fill: url(#linear-gradient5);
      }

      .st4 {
        fill: url(#linear-gradient64);
        opacity: .56;
      }

      .st4, .st5, .st6, .st7, .st8, .st9, .st10, .st11, .st12, .st13, .st14, .st15, .st16, .st17, .st18, .st19, .st20, .st21, .st22, .st23, .st24, .st25, .st26, .st27, .st28, .st29, .st30, .st31, .st32, .st33, .st34, .st35, .st36, .st37, .st38, .st39, .st40, .st41, .st42, .st43, .st44, .st45, .st46 {
        isolation: isolate;
      }

      .st4, .st5, .st6, .st7, .st36, .st37 {
        mix-blend-mode: screen;
      }

      .st5 {
        fill: url(#linear-gradient77);
      }

      .st5, .st6 {
        opacity: .45;
      }

      .st6 {
        fill: url(#linear-gradient59);
      }

      .st7 {
        fill: url(#linear-gradient63);
        opacity: .76;
      }

      .st47 {
        fill: url(#linear-gradient31);
      }

      .st48 {
        fill: url(#linear-gradient30);
      }

      .st49 {
        fill: url(#linear-gradient38);
      }

      .st50 {
        fill: url(#linear-gradient61);
      }

      .st51 {
        fill: url(#linear-gradient60);
      }

      .st52 {
        fill: url(#linear-gradient62);
      }

      .st53 {
        fill: url(#linear-gradient69);
      }

      .st54 {
        fill: url(#linear-gradient65);
      }

      .st55 {
        fill: url(#linear-gradient67);
      }

      .st56 {
        fill: url(#linear-gradient66);
      }

      .st57 {
        fill: url(#linear-gradient34);
      }

      .st58 {
        fill: url(#linear-gradient36);
      }

      .st59 {
        fill: url(#linear-gradient80);
      }

      .st60 {
        fill: url(#linear-gradient41);
      }

      .st61 {
        fill: url(#linear-gradient48);
      }

      .st62 {
        fill: url(#linear-gradient47);
      }

      .st63 {
        fill: url(#linear-gradient45);
      }

      .st64 {
        fill: url(#linear-gradient49);
      }

      .st65 {
        fill: url(#linear-gradient79);
      }

      .st66 {
        fill: url(#linear-gradient87);
      }

      .st67 {
        fill: url(#linear-gradient78);
      }

      .st68 {
        fill: url(#linear-gradient76);
      }

      .st69 {
        fill: url(#linear-gradient84);
      }

      .st70 {
        fill: url(#linear-gradient82);
      }

      .st71 {
        fill: url(#linear-gradient73);
      }

      .st72 {
        fill: url(#linear-gradient72);
      }

      .st73 {
        fill: url(#linear-gradient51);
      }

      .st74 {
        fill: url(#linear-gradient52);
      }

      .st75 {
        fill: url(#linear-gradient56);
      }

      .st76 {
        fill: url(#linear-gradient54);
      }

      .st77 {
        fill: url(#linear-gradient55);
      }

      .st78 {
        fill: url(#linear-gradient58);
      }

      .st79 {
        fill: url(#linear-gradient28);
      }

      .st80 {
        fill: url(#linear-gradient29);
      }

      .st81 {
        fill: url(#linear-gradient18);
      }

      .st82 {
        fill: url(#linear-gradient12);
      }

      .st83 {
        fill: url(#linear-gradient16);
      }

      .st84 {
        fill: url(#linear-gradient10);
      }

      .st85 {
        fill: url(#linear-gradient14);
      }

      .st86 {
        fill: url(#linear-gradient19);
      }

      .st87 {
        fill: url(#linear-gradient22);
      }

      .st88 {
        fill: url(#linear-gradient24);
      }

      .st89 {
        fill: url(#linear-gradient21);
      }

      .st90 {
        fill: url(#linear-gradient26);
      }

      .st91 {
        fill: url(#linear-gradient);
      }

      .st9 {
        fill: url(#linear-gradient13);
      }

      .st9, .st10, .st11, .st12, .st13, .st14, .st15, .st16, .st17, .st18, .st19, .st20, .st21, .st22, .st23, .st24, .st25, .st26, .st27, .st28, .st29, .st30, .st31, .st32, .st33, .st34, .st35, .st38, .st39, .st40, .st41, .st42, .st43, .st44, .st45, .st46 {
        mix-blend-mode: multiply;
      }

      .st10 {
        fill: url(#linear-gradient11);
      }

      .st11 {
        fill: url(#linear-gradient15);
      }

      .st12 {
        fill: url(#linear-gradient17);
      }

      .st13 {
        fill: url(#linear-gradient20);
      }

      .st14 {
        fill: url(#linear-gradient27);
      }

      .st15 {
        fill: url(#linear-gradient25);
      }

      .st16 {
        fill: url(#linear-gradient23);
      }

      .st17 {
        fill: url(#linear-gradient50);
      }

      .st18 {
        fill: url(#linear-gradient57);
      }

      .st19 {
        fill: url(#linear-gradient32);
      }

      .st20 {
        fill: url(#linear-gradient39);
      }

      .st21 {
        fill: url(#linear-gradient37);
      }

      .st22 {
        fill: url(#linear-gradient33);
      }

      .st23 {
        fill: url(#linear-gradient35);
      }

      .st24 {
        fill: url(#linear-gradient90);
      }

      .st25 {
        fill: url(#linear-gradient81);
      }

      .st26 {
        fill: url(#linear-gradient42);
      }

      .st27 {
        fill: url(#linear-gradient40);
      }

      .st28 {
        fill: url(#linear-gradient44);
      }

      .st29 {
        fill: url(#linear-gradient46);
      }

      .st30 {
        fill: url(#linear-gradient43);
      }

      .st31 {
        fill: url(#linear-gradient89);
      }

      .st32 {
        fill: url(#linear-gradient86);
      }

      .st33 {
        fill: url(#linear-gradient88);
      }

      .st34 {
        fill: url(#linear-gradient83);
      }

      .st35 {
        fill: url(#linear-gradient85);
      }

      .st92 {
        fill: #fff;
      }

      .st36 {
        fill: url(#linear-gradient70);
      }

      .st37 {
        fill: url(#linear-gradient74);
      }

      .st38 {
        fill: url(#linear-gradient8);
      }

      .st39 {
        fill: url(#linear-gradient6);
      }

      .st40 {
        fill: url(#linear-gradient4);
      }

      .st41 {
        fill: url(#linear-gradient2);
      }

      .st42 {
        fill: url(#linear-gradient1);
      }

      .st43 {
        fill: url(#linear-gradient71);
      }

      .st43, .st44 {
        opacity: .68;
      }

      .st44 {
        fill: url(#linear-gradient75);
      }

      .st45 {
        fill: url(#linear-gradient53);
      }

      .st45, .st46 {
        opacity: .89;
      }

      .st46 {
        fill: url(#linear-gradient68);
      }
    </style>
    <linearGradient id="linear-gradient" x1="1899.11" y1="664.62" x2="2157.07" y2="331.25" gradientTransform="translate(2657.1995 1969.8898) rotate(-180)" gradientUnits="userSpaceOnUse">
      <stop offset="0" stop-color="#4ccadb"/>
      <stop offset="1" stop-color="#3390c4"/>
    </linearGradient>
    <linearGradient id="linear-gradient1" x1="1715.86" y1="632.74" x2="2107.42" y2="591.01" gradientTransform="translate(2657.1995 1969.8898) rotate(-180)" gradientUnits="userSpaceOnUse">
      <stop offset="0" stop-color="#52d9ff" stop-opacity=".01"/>
      <stop offset="1" stop-color="#0091bd"/>
    </linearGradient>
    <linearGradient id="linear-gradient2" x1="1711.39" y1="364.75" x2="1901.74" y2="505.49" gradientTransform="translate(2657.1995 1969.8898) rotate(-180)" gradientUnits="userSpaceOnUse">
      <stop offset="0" stop-color="#52d9ff" stop-opacity=".01"/>
      <stop offset="1" stop-color="#0091bd"/>
    </linearGradient>
    <linearGradient id="linear-gradient3" x1="2186.49" y1="409.83" x2="2521.49" y2="246.27" gradientTransform="translate(3225.5895 1293.5061) rotate(163.4207)" gradientUnits="userSpaceOnUse">
      <stop offset="0" stop-color="#ffceaa"/>
      <stop offset="1" stop-color="#fa845c"/>
    </linearGradient>
    <linearGradient id="linear-gradient4" x1="2524.26" y1="359.67" x2="2376.37" y2="338.77" gradientTransform="translate(3225.5895 1293.5061) rotate(163.4207)" gradientUnits="userSpaceOnUse">
      <stop offset="0" stop-color="#ffceaa" stop-opacity=".03"/>
      <stop offset="1" stop-color="#f08460"/>
    </linearGradient>
    <linearGradient id="linear-gradient5" x1="3076.98" y1="648.24" x2="3542.21" y2="546.03" gradientTransform="translate(3672.1271 -36.5265) rotate(137.2683)" gradientUnits="userSpaceOnUse">
      <stop offset="0" stop-color="#f3e8f5"/>
      <stop offset="1" stop-color="#d9b5ca"/>
    </linearGradient>
    <linearGradient id="linear-gradient6" x1="3349.57" y1="579.36" x2="3175.79" y2="633.62" gradientTransform="translate(3672.1271 -36.5265) rotate(137.2683)" gradientUnits="userSpaceOnUse">
      <stop offset="0" stop-color="#f3e8f5"/>
      <stop offset="1" stop-color="#d9b5ca"/>
    </linearGradient>
    <linearGradient id="linear-gradient7" x1="176.37" y1="406.8" x2="365.95" y2="81.98" gradientTransform="translate(1307.6294 2127.7111) rotate(166.1427)" gradientUnits="userSpaceOnUse">
      <stop offset="0" stop-color="#e81200"/>
      <stop offset=".59" stop-color="#b51700"/>
    </linearGradient>
    <linearGradient id="linear-gradient8" x1="817.46" y1="806.57" x2="704.87" y2="827.84" gradientTransform="translate(2027.3139 2003.1626) rotate(139.4041)" gradientUnits="userSpaceOnUse">
      <stop offset="0" stop-color="#e81200" stop-opacity="0"/>
      <stop offset="1" stop-color="#b51700"/>
    </linearGradient>
    <linearGradient id="linear-gradient9" x1="172.2" y1="479.07" x2="334.12" y2="265.04" gradientTransform="translate(1307.6294 2127.7111) rotate(166.1427)" gradientUnits="userSpaceOnUse">
      <stop offset="0" stop-color="#e81200"/>
      <stop offset=".59" stop-color="#b51700"/>
    </linearGradient>
    <linearGradient id="linear-gradient10" x1="254.24" y1="409.64" x2="252.03" y2="351.23" gradientTransform="translate(1307.6294 2127.7111) rotate(166.1427)" gradientUnits="userSpaceOnUse">
      <stop offset="0" stop-color="#f3e8f5"/>
      <stop offset="1" stop-color="#d9b5ca"/>
    </linearGradient>
    <linearGradient id="linear-gradient11" x1="253.85" y1="399.35" x2="252.03" y2="351.23" gradientTransform="translate(1307.6294 2127.7111) rotate(166.1427)" gradientUnits="userSpaceOnUse">
      <stop offset="0" stop-color="#f3e8f5"/>
      <stop offset="1" stop-color="#d9b5ca"/>
    </linearGradient>
    <linearGradient id="linear-gradient12" x1="214.8" y1="377.43" x2="212.35" y2="312.42" gradientTransform="translate(1307.6294 2127.7111) rotate(166.1427)" gradientUnits="userSpaceOnUse">
      <stop offset="0" stop-color="#f3e8f5"/>
      <stop offset="1" stop-color="#d9b5ca"/>
    </linearGradient>
    <linearGradient id="linear-gradient13" x1="214.72" y1="375.33" x2="212.91" y2="327.27" gradientTransform="translate(1307.6294 2127.7111) rotate(166.1427)" gradientUnits="userSpaceOnUse">
      <stop offset="0" stop-color="#f3e8f5"/>
      <stop offset="1" stop-color="#d9b5ca"/>
    </linearGradient>
    <linearGradient id="linear-gradient14" x1="225.8" y1="256.86" x2="232.88" y2="62.6" gradientTransform="translate(1307.6294 2127.7111) rotate(166.1427)" gradientUnits="userSpaceOnUse">
      <stop offset="0" stop-color="#ff8900"/>
      <stop offset="1" stop-color="#eb8a00"/>
    </linearGradient>
    <linearGradient id="linear-gradient15" x1="736.98" y1="595.74" x2="688.33" y2="868.89" gradientTransform="translate(2027.3139 2003.1626) rotate(139.4041)" gradientUnits="userSpaceOnUse">
      <stop offset="0" stop-color="#e81200" stop-opacity="0"/>
      <stop offset="1" stop-color="#b51700"/>
    </linearGradient>
    <linearGradient id="linear-gradient16" x1="2195.87" y1="611.85" x2="2434.56" y2="212.64" gradientTransform="translate(-1939.8192 1665.5736) rotate(7.7656) scale(1 -1)" gradientUnits="userSpaceOnUse">
      <stop offset="0" stop-color="#ffceaa"/>
      <stop offset="1" stop-color="#fa845c"/>
    </linearGradient>
    <linearGradient id="linear-gradient17" x1="2454.57" y1="488.91" x2="2137.12" y2="429.09" gradientTransform="translate(-1939.8192 1665.5736) rotate(7.7656) scale(1 -1)" gradientUnits="userSpaceOnUse">
      <stop offset="0" stop-color="#ffceaa" stop-opacity=".03"/>
      <stop offset="1" stop-color="#f08460"/>
    </linearGradient>
    <linearGradient id="linear-gradient18" x1="2837.97" y1="1249.4" x2="3111.73" y2="628.05" gradientTransform="translate(-2812.2204 2232.9257) rotate(9.5361) scale(1 -1)" gradientUnits="userSpaceOnUse">
      <stop offset="0" stop-color="#ff8900"/>
      <stop offset="1" stop-color="#eb8a00"/>
    </linearGradient>
    <linearGradient id="linear-gradient19" x1="2231.68" y1="215.32" x2="2021.78" y2="480.89" gradientTransform="translate(2315.3471 2245.8552) rotate(-172.2344)" gradientUnits="userSpaceOnUse">
      <stop offset="0" stop-color="#e81200"/>
      <stop offset="1" stop-color="#b51700"/>
    </linearGradient>
    <linearGradient id="linear-gradient20" x1="2176.02" y1="181.3" x2="2121.41" y2="338.77" gradientTransform="translate(2315.3471 2245.8552) rotate(-172.2344)" gradientUnits="userSpaceOnUse">
      <stop offset="0" stop-color="#e81200" stop-opacity="0"/>
      <stop offset="1" stop-color="#b51700"/>
    </linearGradient>
    <linearGradient id="linear-gradient21" x1="2947.6" y1="1034.06" x2="2915.31" y2="1360.35" gradientTransform="translate(-2812.2204 2232.9257) rotate(9.5361) scale(1 -1)" gradientUnits="userSpaceOnUse">
      <stop offset="0" stop-color="#e81200"/>
      <stop offset=".59" stop-color="#b51700"/>
    </linearGradient>
    <linearGradient id="linear-gradient22" x1="2080.87" y1="503.14" x2="2061.52" y2="242.2" gradientTransform="translate(2315.3471 2245.8552) rotate(-172.2344)" gradientUnits="userSpaceOnUse">
      <stop offset="0" stop-color="#f3e8f5"/>
      <stop offset="1" stop-color="#d9b5ca"/>
    </linearGradient>
    <linearGradient id="linear-gradient23" x1="2073.96" y1="340.58" x2="2072.21" y2="484.39" gradientTransform="translate(2315.3471 2245.8552) rotate(-172.2344)" gradientUnits="userSpaceOnUse">
      <stop offset="0" stop-color="#f3e8f5"/>
      <stop offset="1" stop-color="#d9b5ca"/>
    </linearGradient>
    <linearGradient id="linear-gradient24" x1="2935.68" y1="1116.64" x2="2933.77" y2="1077.72" gradientTransform="translate(-2812.2204 2232.9257) rotate(9.5361) scale(1 -1)" gradientUnits="userSpaceOnUse">
      <stop offset="0" stop-color="#f3e8f5"/>
      <stop offset="1" stop-color="#d9b5ca"/>
    </linearGradient>
    <linearGradient id="linear-gradient25" x1="3044.22" y1="1109.42" x2="2906.11" y2="1089.32" gradientTransform="translate(-2812.2204 2232.9257) rotate(9.5361) scale(1 -1)" gradientUnits="userSpaceOnUse">
      <stop offset="0" stop-color="#f3e8f5"/>
      <stop offset="1" stop-color="#d9b5ca"/>
    </linearGradient>
    <linearGradient id="linear-gradient26" x1="2944.5" y1="1079.18" x2="2942.62" y2="1040.72" gradientTransform="translate(-2812.2204 2232.9257) rotate(9.5361) scale(1 -1)" gradientUnits="userSpaceOnUse">
      <stop offset="0" stop-color="#f3e8f5"/>
      <stop offset="1" stop-color="#d9b5ca"/>
    </linearGradient>
    <linearGradient id="linear-gradient27" x1="3038.22" y1="1074.12" x2="2917.91" y2="1056.61" gradientTransform="translate(-2812.2204 2232.9257) rotate(9.5361) scale(1 -1)" gradientUnits="userSpaceOnUse">
      <stop offset="0" stop-color="#f3e8f5"/>
      <stop offset="1" stop-color="#d9b5ca"/>
    </linearGradient>
    <linearGradient id="linear-gradient28" x1="2943.61" y1="1133.83" x2="2880.76" y2="1039.95" gradientTransform="translate(-2812.2204 2232.9257) rotate(9.5361) scale(1 -1)" gradientUnits="userSpaceOnUse">
      <stop offset="0" stop-color="#e81200"/>
      <stop offset=".59" stop-color="#b51700"/>
    </linearGradient>
    <linearGradient id="linear-gradient29" x1="2005.61" y1="586.93" x2="2671.51" y2="730.18" gradientTransform="translate(2657.1995 1969.8898) rotate(-180)" gradientUnits="userSpaceOnUse">
      <stop offset="0" stop-color="#4ccadb"/>
      <stop offset="1" stop-color="#3390c4"/>
    </linearGradient>
    <linearGradient id="linear-gradient30" x1="-3770.46" y1="1025.86" x2="-3470.83" y2="1474.59" gradientTransform="translate(-3236.5544 190.3398) rotate(-144.7395)" gradientUnits="userSpaceOnUse">
      <stop offset="0" stop-color="#b8f3ff"/>
      <stop offset="1" stop-color="#59c8ff"/>
    </linearGradient>
    <linearGradient id="linear-gradient31" x1="-3732.98" y1="1028.6" x2="-3433.78" y2="1476.7" gradientTransform="translate(-3236.5544 190.3398) rotate(-144.7395)" gradientUnits="userSpaceOnUse">
      <stop offset="0" stop-color="#b8f3ff"/>
      <stop offset="1" stop-color="#59c8ff"/>
    </linearGradient>
    <linearGradient id="linear-gradient32" x1="2052.04" y1="379.92" x2="2212.48" y2="793.17" gradientTransform="translate(2657.1995 1969.8898) rotate(-180)" gradientUnits="userSpaceOnUse">
      <stop offset="0" stop-color="#52d9ff" stop-opacity=".01"/>
      <stop offset="1" stop-color="#0091bd"/>
    </linearGradient>
    <linearGradient id="linear-gradient33" x1="2401.76" y1="714.29" x2="2397.02" y2="717.57" gradientTransform="translate(-1637.3512 1969.8898) scale(1 -1)" gradientUnits="userSpaceOnUse">
      <stop offset="0" stop-color="#4ccadb" stop-opacity="0"/>
      <stop offset="1" stop-color="#3390c4"/>
    </linearGradient>
    <linearGradient id="linear-gradient34" x1="2570.62" y1="1883.57" x2="2495.65" y2="1059.37" gradientTransform="translate(3813.1955 1301.7012) rotate(159.7944)" gradientUnits="userSpaceOnUse">
      <stop offset="0" stop-color="#ffceaa"/>
      <stop offset="1" stop-color="#fa845c"/>
    </linearGradient>
    <linearGradient id="linear-gradient35" x1="2502.42" y1="1581.02" x2="2650.83" y2="1698.85" gradientTransform="translate(3813.1955 1301.7012) rotate(159.7944)" gradientUnits="userSpaceOnUse">
      <stop offset="0" stop-color="#ffceaa" stop-opacity=".04"/>
      <stop offset="1" stop-color="#f08460"/>
    </linearGradient>
    <linearGradient id="linear-gradient36" x1="2342.9" y1="1921.18" x2="2458.39" y2="1865.1" gradientTransform="translate(3813.1955 1301.7012) rotate(159.7944)" gradientUnits="userSpaceOnUse">
      <stop offset="0" stop-color="#ffceaa"/>
      <stop offset="1" stop-color="#fa845c"/>
    </linearGradient>
    <linearGradient id="linear-gradient37" x1="2307.29" y1="1862.4" x2="2393.71" y2="1908.4" gradientTransform="translate(3813.1955 1301.7012) rotate(159.7944)" gradientUnits="userSpaceOnUse">
      <stop offset="0" stop-color="#ffceaa" stop-opacity=".04"/>
      <stop offset="1" stop-color="#f08460"/>
    </linearGradient>
    <linearGradient id="linear-gradient38" x1="2339.14" y1="1992.02" x2="2469.39" y2="1838.11" gradientTransform="translate(3813.1955 1301.7012) rotate(159.7944)" gradientUnits="userSpaceOnUse">
      <stop offset="0" stop-color="#ffceaa"/>
      <stop offset="1" stop-color="#fa845c"/>
    </linearGradient>
    <linearGradient id="linear-gradient39" x1="2380.85" y1="1882.35" x2="2338.28" y2="2024.42" gradientTransform="translate(3813.1955 1301.7012) rotate(159.7944)" gradientUnits="userSpaceOnUse">
      <stop offset="0" stop-color="#ffceaa" stop-opacity=".04"/>
      <stop offset="1" stop-color="#f08460"/>
    </linearGradient>
    <linearGradient id="linear-gradient40" x1="2339.93" y1="2000.74" x2="2374" y2="1896.19" gradientTransform="translate(3813.1955 1301.7012) rotate(159.7944)" gradientUnits="userSpaceOnUse">
      <stop offset="0" stop-color="#ffceaa" stop-opacity=".04"/>
      <stop offset="1" stop-color="#f08460"/>
    </linearGradient>
    <linearGradient id="linear-gradient41" x1="2402.41" y1="1934.34" x2="2553.39" y2="1798.83" gradientTransform="translate(3813.1955 1301.7012) rotate(159.7944)" gradientUnits="userSpaceOnUse">
      <stop offset="0" stop-color="#ffceaa"/>
      <stop offset="1" stop-color="#fa845c"/>
    </linearGradient>
    <linearGradient id="linear-gradient42" x1="2449.38" y1="1886.46" x2="2351.09" y2="1815.87" gradientTransform="translate(3813.1955 1301.7012) rotate(159.7944)" gradientUnits="userSpaceOnUse">
      <stop offset="0" stop-color="#ffceaa" stop-opacity=".04"/>
      <stop offset="1" stop-color="#f08460"/>
    </linearGradient>
    <linearGradient id="linear-gradient43" x1="2348.18" y1="1926.28" x2="2437.4" y2="1973.75" gradientTransform="translate(3813.1955 1301.7012) rotate(159.7944)" gradientUnits="userSpaceOnUse">
      <stop offset="0" stop-color="#ffceaa" stop-opacity=".04"/>
      <stop offset="1" stop-color="#f08460"/>
    </linearGradient>
    <linearGradient id="linear-gradient44" x1="2446.44" y1="2013.21" x2="2403.15" y2="1982.82" gradientTransform="translate(3813.1955 1301.7012) rotate(159.7944)" gradientUnits="userSpaceOnUse">
      <stop offset="0" stop-color="#ffceaa" stop-opacity=".04"/>
      <stop offset="1" stop-color="#f08460"/>
    </linearGradient>
    <linearGradient id="linear-gradient45" x1="870.24" y1="1045.88" x2="716.83" y2="1409.94" gradientTransform="translate(-334.7793 1828.5999) rotate(5.7139) scale(1 -1)" gradientUnits="userSpaceOnUse">
      <stop offset="0" stop-color="#ffceaa"/>
      <stop offset="1" stop-color="#fa845c"/>
    </linearGradient>
    <linearGradient id="linear-gradient46" x1="829.28" y1="1113.49" x2="722.89" y2="1352.86" gradientTransform="translate(-334.7793 1828.5999) rotate(5.7139) scale(1 -1)" gradientUnits="userSpaceOnUse">
      <stop offset="0" stop-color="#ffceaa" stop-opacity=".04"/>
      <stop offset="1" stop-color="#f08460"/>
    </linearGradient>
    <linearGradient id="linear-gradient47" x1="528.69" y1="1228.57" x2="750.06" y2="-262.78" gradientTransform="translate(0 1969.8898) scale(1 -1)" gradientUnits="userSpaceOnUse">
      <stop offset="0" stop-color="#ffa15e"/>
      <stop offset="1" stop-color="#e83c37"/>
    </linearGradient>
    <linearGradient id="linear-gradient48" x1="1052.05" y1="1228.29" x2="904.23" y2="877.77" gradientTransform="translate(-334.7793 1828.5999) rotate(5.7139) scale(1 -1)" gradientUnits="userSpaceOnUse">
      <stop offset="0" stop-color="#ffecde"/>
      <stop offset="1" stop-color="#ffa19e"/>
    </linearGradient>
    <linearGradient id="linear-gradient49" x1="820.82" y1="1107.85" x2="727.07" y2="1514.08" gradientTransform="translate(-334.7793 1828.5999) rotate(5.7139) scale(1 -1)" gradientUnits="userSpaceOnUse">
      <stop offset="0" stop-color="#ffecde"/>
      <stop offset="1" stop-color="#ffa19e"/>
    </linearGradient>
    <linearGradient id="linear-gradient50" x1="1930.69" y1="631.76" x2="1784.29" y2="986.81" gradientTransform="translate(2309.2179 2093.154) rotate(-174.2861)" gradientUnits="userSpaceOnUse">
      <stop offset="0" stop-color="#ffceaa" stop-opacity=".04"/>
      <stop offset="1" stop-color="#f08460"/>
    </linearGradient>
    <linearGradient id="linear-gradient51" x1="652.2" y1="1234.44" x2="614.96" y2="635.91" gradientTransform="translate(-334.7793 1828.5999) rotate(5.7139) scale(1 -1)" gradientUnits="userSpaceOnUse">
      <stop offset="0" stop-color="#ffecde"/>
      <stop offset="1" stop-color="#ffa19e"/>
    </linearGradient>
    <linearGradient id="linear-gradient52" x1="-3574.63" y1="1564.61" x2="-3621.61" y2="1452.75" gradientTransform="translate(4315.8128 2009.9576) rotate(1.7341) scale(1 -1)" gradientUnits="userSpaceOnUse">
      <stop offset="0" stop-color="#ffceaa"/>
      <stop offset="1" stop-color="#fa845c"/>
    </linearGradient>
    <linearGradient id="linear-gradient53" x1="-3429.97" y1="1487.02" x2="-3631.34" y2="1494.04" gradientTransform="translate(4315.8128 2009.9576) rotate(1.7341) scale(1 -1)" gradientUnits="userSpaceOnUse">
      <stop offset="0" stop-color="#ffceaa" stop-opacity="0"/>
      <stop offset=".13" stop-color="#fcc19d" stop-opacity=".17"/>
      <stop offset=".37" stop-color="#f8ab87" stop-opacity=".46"/>
      <stop offset=".58" stop-color="#f49a76" stop-opacity=".69"/>
      <stop offset=".77" stop-color="#f28e6a" stop-opacity=".86"/>
      <stop offset=".91" stop-color="#f08662" stop-opacity=".96"/>
      <stop offset="1" stop-color="#f08460"/>
    </linearGradient>
    <linearGradient id="linear-gradient54" x1="-5887.35" y1="706.94" x2="-5887.35" y2="86.37" gradientTransform="translate(6457.2366 847.9742) rotate(-2.6341) scale(1 -1)" gradientUnits="userSpaceOnUse">
      <stop offset="0" stop-color="#ffceaa"/>
      <stop offset="1" stop-color="#fa845c"/>
    </linearGradient>
    <linearGradient id="linear-gradient55" x1="1211.87" y1="-1040.43" x2="1070.04" y2="-1019.59" gradientTransform="translate(-692.36 -342.59) rotate(-7.12) scale(1 -1)" gradientUnits="userSpaceOnUse">
      <stop offset="0" stop-color="#ff385d"/>
      <stop offset="1" stop-color="#96002b"/>
    </linearGradient>
    <linearGradient id="linear-gradient56" x1="411.24" y1="-1216.78" x2="443.51" y2="-1289.87" gradientTransform="translate(325.5 -717.34) rotate(8.18) scale(1 -1)" gradientUnits="userSpaceOnUse">
      <stop offset="0" stop-color="#ff5789"/>
      <stop offset="1" stop-color="#ff0048"/>
    </linearGradient>
    <linearGradient id="linear-gradient57" x1="-5962.78" y1="684.41" x2="-6132.53" y2="562.5" gradientTransform="translate(6457.2366 847.9742) rotate(-2.6341) scale(1 -1)" gradientUnits="userSpaceOnUse">
      <stop offset="0" stop-color="#ffceaa" stop-opacity=".04"/>
      <stop offset="1" stop-color="#f08460"/>
    </linearGradient>
    <linearGradient id="linear-gradient58" x1="-3475.28" y1="1196.64" x2="-3424.95" y2="1373.9" gradientTransform="translate(4293.8626 1443.5551) rotate(-4.6913) scale(1 -1.1532)" gradientUnits="userSpaceOnUse">
      <stop offset="0" stop-color="#371a00"/>
      <stop offset="1" stop-color="#643700"/>
    </linearGradient>
    <linearGradient id="linear-gradient59" x1="-3452.19" y1="1186.06" x2="-3448.16" y2="1219.03" gradientTransform="translate(4293.8626 1443.5551) rotate(-4.6913) scale(1 -1.1532)" gradientUnits="userSpaceOnUse">
      <stop offset="0" stop-color="#371a00"/>
      <stop offset="1" stop-color="#643700"/>
    </linearGradient>
    <linearGradient id="linear-gradient60" x1="-3871.84" y1="1482.14" x2="-3885.5" y2="1585.67" gradientTransform="translate(4315.8128 2009.9576) rotate(1.7341) scale(1 -1)" gradientUnits="userSpaceOnUse">
      <stop offset="0" stop-color="#ffceaa"/>
      <stop offset=".69" stop-color="#fa845c"/>
    </linearGradient>
    <linearGradient id="linear-gradient61" x1="-3707.13" y1="1489.12" x2="-3707.13" y2="1619.16" gradientTransform="translate(4315.8128 2009.9576) rotate(1.7341) scale(1 -1)" gradientUnits="userSpaceOnUse">
      <stop offset="0" stop-color="#ffceaa"/>
      <stop offset=".73" stop-color="#fa845c"/>
    </linearGradient>
    <linearGradient id="linear-gradient62" x1="-3885.4" y1="1527.04" x2="-3855.73" y2="1769.78" gradientTransform="translate(4315.8128 2009.9576) rotate(1.7341) scale(1 -1)" gradientUnits="userSpaceOnUse">
      <stop offset="0" stop-color="#371a00"/>
      <stop offset="1" stop-color="#643700"/>
    </linearGradient>
    <linearGradient id="linear-gradient63" x1="-3946.15" y1="1684.54" x2="-3820.75" y2="1698.09" gradientTransform="translate(4315.8128 2009.9576) rotate(1.7341) scale(1 -1)" gradientUnits="userSpaceOnUse">
      <stop offset="0" stop-color="#371a00"/>
      <stop offset="1" stop-color="#643700"/>
    </linearGradient>
    <linearGradient id="linear-gradient64" x1="-3941.07" y1="1711.97" x2="-3850.83" y2="1774.44" gradientTransform="translate(4315.8128 2009.9576) rotate(1.7341) scale(1 -1)" gradientUnits="userSpaceOnUse">
      <stop offset="0" stop-color="#371a00"/>
      <stop offset="1" stop-color="#643700"/>
    </linearGradient>
    <linearGradient id="linear-gradient65" x1="-3769.39" y1="1526.78" x2="-3719.32" y2="1450.74" gradientTransform="translate(4315.8128 2009.9576) rotate(1.7341) scale(1 -1)" gradientUnits="userSpaceOnUse">
      <stop offset="0" stop-color="#ffceaa"/>
      <stop offset="1" stop-color="#fa845c"/>
    </linearGradient>
    <linearGradient id="linear-gradient66" x1="-3725.44" y1="1252.28" x2="-3613.11" y2="1107.78" gradientTransform="translate(4200.3611 928.7107) rotate(-9.8462) scale(1 -1)" gradientUnits="userSpaceOnUse">
      <stop offset="0" stop-color="#371a00"/>
      <stop offset="1" stop-color="#643700"/>
    </linearGradient>
    <linearGradient id="linear-gradient67" x1="-4075.48" y1="1424.98" x2="-3977.5" y2="1424.98" gradientTransform="translate(4315.8128 2009.9576) rotate(1.7341) scale(1 -1)" gradientUnits="userSpaceOnUse">
      <stop offset="0" stop-color="#ffceaa"/>
      <stop offset="1" stop-color="#fa845c"/>
    </linearGradient>
    <linearGradient id="linear-gradient68" x1="-4075.63" y1="1424.78" x2="-3981.79" y2="1425.28" gradientTransform="translate(4315.8128 2009.9576) rotate(1.7341) scale(1 -1)" gradientUnits="userSpaceOnUse">
      <stop offset="0" stop-color="#ffceaa" stop-opacity="0"/>
      <stop offset="1" stop-color="#f08460"/>
    </linearGradient>
    <linearGradient id="linear-gradient69" x1="5842.25" y1="2079.22" x2="5842.25" y2="2018.17" gradientTransform="translate(6539.8146 1748.8656) rotate(173.0094)" gradientUnits="userSpaceOnUse">
      <stop offset="0" stop-color="#b56f02"/>
      <stop offset="1" stop-color="#530f00"/>
    </linearGradient>
    <linearGradient id="linear-gradient70" x1="5842.24" y1="2065.16" x2="5842.24" y2="2035.29" gradientTransform="translate(6539.8146 1748.8656) rotate(173.0094)" gradientUnits="userSpaceOnUse">
      <stop offset="0" stop-color="#b56f02"/>
      <stop offset="1" stop-color="#530f00"/>
    </linearGradient>
    <linearGradient id="linear-gradient71" x1="5827.61" y1="2064.56" x2="5856.88" y2="2064.56" gradientTransform="translate(6539.8146 1748.8656) rotate(173.0094)" gradientUnits="userSpaceOnUse">
      <stop offset="0" stop-color="#b56f02"/>
      <stop offset="1" stop-color="#530f00"/>
    </linearGradient>
    <linearGradient id="linear-gradient72" x1="-3924.01" y1="1482.4" x2="-3829.12" y2="1504.71" gradientTransform="translate(4315.8128 2009.9576) rotate(1.7341) scale(1 -1)" gradientUnits="userSpaceOnUse">
      <stop offset="0" stop-color="#57311b"/>
      <stop offset="1" stop-color="#0b0b0a"/>
    </linearGradient>
    <linearGradient id="linear-gradient73" x1="5672.58" y1="2082.26" x2="5672.58" y2="2021.21" gradientTransform="translate(6539.8143 1748.8657) rotate(173.0094)" gradientUnits="userSpaceOnUse">
      <stop offset="0" stop-color="#b56f02"/>
      <stop offset="1" stop-color="#530f00"/>
    </linearGradient>
    <linearGradient id="linear-gradient74" x1="5672.57" y1="2068.19" x2="5672.57" y2="2038.32" gradientTransform="translate(6539.8146 1748.8656) rotate(173.0094)" gradientUnits="userSpaceOnUse">
      <stop offset="0" stop-color="#b56f02"/>
      <stop offset="1" stop-color="#530f00"/>
    </linearGradient>
    <linearGradient id="linear-gradient75" x1="5657.94" y1="2067.59" x2="5687.21" y2="2067.59" gradientTransform="translate(6539.8146 1748.8656) rotate(173.0094)" gradientUnits="userSpaceOnUse">
      <stop offset="0" stop-color="#b56f02"/>
      <stop offset="1" stop-color="#530f00"/>
    </linearGradient>
    <linearGradient id="linear-gradient76" x1="-3750.11" y1="1502.45" x2="-3663.82" y2="1522.74" gradientTransform="translate(4315.8128 2009.9576) rotate(1.7341) scale(1 -1)" gradientUnits="userSpaceOnUse">
      <stop offset="0" stop-color="#57311b"/>
      <stop offset="1" stop-color="#0b0b0a"/>
    </linearGradient>
    <linearGradient id="linear-gradient77" x1="-3721.58" y1="1171.98" x2="-3716.09" y2="1216.86" gradientTransform="translate(4200.3611 928.7107) rotate(-9.8462) scale(1 -1)" gradientUnits="userSpaceOnUse">
      <stop offset="0" stop-color="#371a00"/>
      <stop offset="1" stop-color="#643700"/>
    </linearGradient>
    <linearGradient id="linear-gradient78" x1="-3938.49" y1="1553.66" x2="-3826.22" y2="1553.66" gradientTransform="translate(4315.8128 2009.9576) rotate(1.7341) scale(1 -1)" gradientUnits="userSpaceOnUse">
      <stop offset="0" stop-color="#b56f02"/>
      <stop offset="1" stop-color="#530f00"/>
    </linearGradient>
    <linearGradient id="linear-gradient79" x1="-3530.08" y1="1496.07" x2="-3611.52" y2="1411.62" gradientTransform="translate(4303.2187 1567.9555) rotate(-3.174) scale(1 -1)" gradientUnits="userSpaceOnUse">
      <stop offset="0" stop-color="#b56f02"/>
      <stop offset="1" stop-color="#530f00"/>
    </linearGradient>
    <linearGradient id="linear-gradient80" x1="491.74" y1="1449.4" x2="416.77" y2="625.2" gradientTransform="translate(-334.7793 1828.5999) rotate(5.7139) scale(1 -1)" gradientUnits="userSpaceOnUse">
      <stop offset="0" stop-color="#ffceaa"/>
      <stop offset="1" stop-color="#fa845c"/>
    </linearGradient>
    <linearGradient id="linear-gradient81" x1="423.54" y1="1146.85" x2="576.81" y2="1268.55" gradientTransform="translate(-334.7793 1828.5999) rotate(5.7139) scale(1 -1)" gradientUnits="userSpaceOnUse">
      <stop offset="0" stop-color="#ffceaa" stop-opacity=".04"/>
      <stop offset="1" stop-color="#f08460"/>
    </linearGradient>
    <linearGradient id="linear-gradient82" x1="264.02" y1="1487.02" x2="379.51" y2="1430.94" gradientTransform="translate(-334.7793 1828.5999) rotate(5.7139) scale(1 -1)" gradientUnits="userSpaceOnUse">
      <stop offset="0" stop-color="#ffceaa"/>
      <stop offset="1" stop-color="#fa845c"/>
    </linearGradient>
    <linearGradient id="linear-gradient83" x1="228.41" y1="1428.24" x2="314.83" y2="1474.24" gradientTransform="translate(-334.7793 1828.5999) rotate(5.7139) scale(1 -1)" gradientUnits="userSpaceOnUse">
      <stop offset="0" stop-color="#ffceaa" stop-opacity=".04"/>
      <stop offset="1" stop-color="#f08460"/>
    </linearGradient>
    <linearGradient id="linear-gradient84" x1="260.26" y1="1557.86" x2="390.51" y2="1403.94" gradientTransform="translate(-334.7793 1828.5999) rotate(5.7139) scale(1 -1)" gradientUnits="userSpaceOnUse">
      <stop offset="0" stop-color="#ffceaa"/>
      <stop offset="1" stop-color="#fa845c"/>
    </linearGradient>
    <linearGradient id="linear-gradient85" x1="304.72" y1="1439.01" x2="259.59" y2="1589.63" gradientTransform="translate(-334.7793 1828.5999) rotate(5.7139) scale(1 -1)" gradientUnits="userSpaceOnUse">
      <stop offset="0" stop-color="#ffceaa" stop-opacity=".04"/>
      <stop offset="1" stop-color="#f08460"/>
    </linearGradient>
    <linearGradient id="linear-gradient86" x1="261.05" y1="1566.58" x2="295.12" y2="1462.02" gradientTransform="translate(-334.7793 1828.5999) rotate(5.7139) scale(1 -1)" gradientUnits="userSpaceOnUse">
      <stop offset="0" stop-color="#ffceaa" stop-opacity=".04"/>
      <stop offset="1" stop-color="#f08460"/>
    </linearGradient>
    <linearGradient id="linear-gradient87" x1="319.68" y1="1495.89" x2="436.73" y2="1439.05" gradientTransform="translate(-334.7793 1828.5999) rotate(5.7139) scale(1 -1)" gradientUnits="userSpaceOnUse">
      <stop offset="0" stop-color="#ffceaa"/>
      <stop offset="1" stop-color="#fa845c"/>
    </linearGradient>
    <linearGradient id="linear-gradient88" x1="370.5" y1="1452.29" x2="272.21" y2="1381.71" gradientTransform="translate(-334.7793 1828.5999) rotate(5.7139) scale(1 -1)" gradientUnits="userSpaceOnUse">
      <stop offset="0" stop-color="#ffceaa" stop-opacity=".04"/>
      <stop offset="1" stop-color="#f08460"/>
    </linearGradient>
    <linearGradient id="linear-gradient89" x1="269.3" y1="1492.11" x2="358.52" y2="1539.59" gradientTransform="translate(-334.7793 1828.5999) rotate(5.7139) scale(1 -1)" gradientUnits="userSpaceOnUse">
      <stop offset="0" stop-color="#ffceaa" stop-opacity=".04"/>
      <stop offset="1" stop-color="#f08460"/>
    </linearGradient>
    <linearGradient id="linear-gradient90" x1="367.56" y1="1579.04" x2="324.27" y2="1548.66" gradientTransform="translate(-334.7793 1828.5999) rotate(5.7139) scale(1 -1)" gradientUnits="userSpaceOnUse">
      <stop offset="0" stop-color="#ffceaa" stop-opacity=".04"/>
      <stop offset="1" stop-color="#f08460"/>
    </linearGradient>
  </defs>
  <g class="st8">
    <g id="Boy" class="layer" data-name="Boy">
      <g id="Left_Leg" data-limb="leg-l" data-pivot="737 1200">
        <path class="st91" d="M515.42,1318.36c6.17,93.39,128.84,159.12,161.42,243.37,6.43-1.06,12.82-2.11,19.21-3.2,10.58-1.82,21.1-3.71,31.49-5.79,3.65-.7,7.29-1.44,10.87-2.21,12.02-2.56,23.85-5.34,35.26-8.44,25.29-6.87,48.63-15.31,68.55-26.34,31.3-17.33,53.97-40.99,61.74-74.75-.54-1.41-1.09-2.81-1.63-4.22-.48-1.25-.93-2.46-1.44-3.68-5.56-14.36-11.67-29.77-18.54-46.1-13.97-33.25-31.17-70.37-53.84-109.92-6.27-10.97-12.98-22.12-20.14-33.44-3.29-5.21-6.65-10.42-10.17-15.67-2.21-3.32-4.44-6.68-6.75-10.04-1.31-1.92-2.59-3.77-3.8-5.47-1.69-2.49-3.45-4.99-5.27-7.48-.35-.58-.77-1.12-1.22-1.69-.9-1.31-1.66-2.33-2.17-3.07-1.69-2.49-3.49-4.83-5.43-7-44.5-50.87-143.01-21.64-204.49,26.86-6.27,4.99-12.18,10.13-17.58,15.44-1.57,1.5-3.07,3.04-4.54,4.57-2.21,2.3-4.32,4.64-6.3,6.97-9.66,11.29-16.98,22.92-21.04,34.4-1.5,4.22-2.53,8.41-3.13,12.56-1.28,8.31-1.6,16.4-1.05,24.33h0Z"/>
        <path class="st42" d="M515.42,1318.36c6.17,93.39,128.84,159.12,161.42,243.37,6.43-1.06,12.82-2.11,19.21-3.2,10.58-1.82,21.1-3.71,31.49-5.79,3.65-.7,7.29-1.44,10.87-2.21,12.02-2.56,23.85-5.34,35.26-8.44,25.29-6.87,48.63-15.31,68.55-26.34,31.3-17.33,53.97-40.99,61.74-74.75-.54-1.41-1.09-2.81-1.63-4.22-.48-1.25-.93-2.46-1.44-3.68-50.8-51.67-97.16-14.93-197.1,63.62-11.03-18.38-49.62-76.22-66.53-110.24,37.66,28.09,87.66,26.89,100.45,17.42-29.6-16.37-75.58-30.28-109.37-29.16-8.73-23.69.09-39.19,9.33-52.49,22.38-32.23,110.4-74.53,190.84-45.18-6.27-10.97-12.98-22.12-20.14-33.44-3.29-5.21-6.65-10.42-10.17-15.67-2.21-3.32-4.44-6.68-6.75-10.04-1.31-1.92-2.59-3.77-3.8-5.47-2.05-2.88-3.8-5.4-5.27-7.48-.45-.61-.83-1.18-1.22-1.69-.9-1.31-1.66-2.33-2.17-3.07-1.69-2.49-3.49-4.83-5.43-7-44.5-50.87-143.01-21.64-204.49,26.86-6.27,4.99-12.18,10.13-17.58,15.44-1.57,1.5-3.07,3.04-4.54,4.57-15.15,23.12-25.61,49.81-31.52,78.27h0Z"/>
        <path class="st41" d="M895.66,1437.14c-50.62-26.04-153.79,44.2-202.92,111.81,96.19-10.52,198.18-70.32,202.92-111.81Z"/>
        <path class="st1" d="M801.65,1722.49c21.66,32.55,49.26,67.99,83.28,106.4,2.83,3.23,5.72,6.44,8.61,9.65,0,0,42.45-4.76,63.85-3.23,14.06-36.14,15.76-99.79,8.84-165.05-8.32-78.15-58.82-191.51-85.52-230.23-8.13-5.35-24.29-2.94-42.94,4.58-40.79,16.38-93.33,57.17-99.06,94.37-6.99,45.41,11.44,106.31,62.94,183.51h0Z"/>
        <path class="st40" d="M801.65,1722.49c23.61,34.5,51.48,70.4,83.28,106.4,2.83,3.23,5.72,6.44,8.61,9.65,0,0,42.45-4.76,63.85-3.23,14.06-36.14,15.76-99.79,8.84-165.05-44.78,15.3-65.71,20.2-58.36,92.03-68.87-52.82-134.07-126.94-146.55-189.14-9.06-45,20.66-94.69,76.45-128.54-40.79,16.38-93.33,57.17-99.06,94.37-6.99,45.41,11.44,106.31,62.94,183.51h0Z"/>
        <path class="st3" d="M895.15,1837.94c31.96-19.73,59.74-36.3,87.57-52.82,3.8-95.81-28.33-227.44-29.73-227.33-48.31,3.63-131.12,45.39-166.62,74.01-11.08,8.93-20.97,18.2-29.43,27.27-.28.31-.54.59-.78.85,3.01,4.58,7.09,10.69,12.01,17.85,31.74,46.28,97.85,137.68,126.98,160.17h0Z"/>
        <path class="st39" d="M895.15,1837.94c31.96-19.73,59.74-36.3,87.57-52.82.97-24.44-.6-55.68-4.07-89.03-25.86,10.36-56.53-6.8-74.36,11.32-1.45,25.28,16.49,78.82,20.13,78.42-11.98,11.06-18.31,13.05-18.31,13.05-20.56-8.21-101.84-141.43-119.74-167.08-11.08,8.93-20.97,18.2-29.43,27.27-.28.31-.54.59-.78.85,22.38,34.17,105.34,152.05,138.99,178.02h0Z"/>
        <path class="st2" d="M850.9,1904.67c2.83,10.94,6.6,21.61,11.57,31.84,1.09,2.22,3.08,4.22,5.88,6.02v.04c11.86,7.45,38.17,10.74,71.38,10.43,71.91-.62,176.39-18.06,237.72-46.14,23-10.52,11.47-26.93-9.36-42.35-.11-.06-.17-.14-.28-.2-22.86-16.83-56.66-32.49-68.85-38.23-18.68-8.89-37.81-16.67-57.33-23.27-16.83-5.81-34.02-10.68-51.28-14.71-15.06-3.58-30.3-6.43-45.55-8.56l-86.56,19.17-8.15-9.49c-.56.14-1.13.37-1.69.51-1.39,7.41-2.4,14.86-3.09,22.37-.22,1.87-.36,3.67-.5,5.51-2.13,28.83-1.19,58.9,6.07,87.05h0Z"/>
        <path class="st38" d="M844.83,1817.61c9.95.02,19.9-1.51,29.33-4.56,2.17,7.82,4.33,15.69,6.48,23.55,4.94,1.46,9.84,2.93,14.78,4.38,3.23,19.59,20.02,39.87,37.1,24.23,15.35,45.62,136.98-5.17,166.45-39.14-18.68-8.88-37.84-16.64-57.32-23.27-12.19,1.45-26.34,3.69-42.72,6.8-2.05-7.69-4.94-14.88-8.58-21.51-15.06-3.56-30.28-6.41-45.54-8.56l-86.56,19.19-8.15-9.48c-.57.14-1.13.34-1.69.52-1.7,9.21-2.89,18.49-3.59,27.85h0Z"/>
        <path class="st0" d="M986.05,1784.33s39.15-36.61,47.35-78.41c4.96-25.27-90.49-39.95-102.54.81-14.99,50.68-11.18,106.38-11.18,106.38l72.76,47.11s52.32-9.22,73.87-32.52c-51.2-23.9-80.25-43.35-80.25-43.35Z"/>
        <path class="st84" d="M935,1859.65c27.17-30.89,66.11-49.69,106.46-51.38-1.46-3.47-2.93-6.95-4.39-10.42-2.13-5.09-4.3-10.18-6.44-15.3-33.93-5.35-68.99,5.22-95.59,26.99-11.98,9.8-22.25,21.85-29.92,35.73-1.43,8.22,15.91,18.55,29.88,14.37h0Z"/>
        <path class="st10" d="M935,1859.65c27.17-30.89,66.11-49.69,106.46-51.38-1.46-3.47-2.93-6.95-4.39-10.42-13.81-.95-27.75,1.39-40.88,5.66-18.97,6.17-35.07,24.91-52.47,34.85-9.88-5.47-15.4-16.54-8.69-28.82-11.98,9.8-22.25,21.85-29.92,35.73-1.43,8.22,15.91,18.55,29.88,14.37h0Z"/>
        <path class="st82" d="M981.68,1872.09c30.79-26.43,68.11-44.3,107.51-51.54-.44-.78-2.95-3.01-6.45-5.75-8.45-6.61-22.65-16.16-27.71-15.9-23.13,1.08-52.85,10.95-75.85,24.46-17.25,10.17-30.75,22.39-34.88,34.55-2.39,12.06,24.68,21.9,37.38,14.18h0Z"/>
        <path class="st9" d="M981.68,1872.09c30.79-26.43,68.11-44.3,107.51-51.54-.44-.78-2.95-3.01-6.45-5.75-34.42,7.76-66.21,23.64-97.02,41.22-16.04-5.51-15.4-21.36-6.54-32.66-17.25,10.17-30.75,22.39-34.88,34.55-2.39,12.06,24.68,21.9,37.38,14.18h0Z"/>
        <path class="st85" d="M861.87,1971.03c212.78,12.1,325.72-47.14,325.72-47.14,0,0,5.96-4.87,9.43-16.14,2.24-7.26,3.46-17.2,1.33-30.22-8.86-4.52-21.67-8.7-30.53-13.21.11.06.17.14.28.2,9.92,8.29,14.53,13.17,17.69,17.74-53.98,53.26-279.85,90.73-332.53,25.51-.83-.97-1.58-2.01-2.35-3.09-.21-.31-.43-.66-.65-.97-2.63.56-5.25,1.11-7.92,1.68,4.93,44.21,5.25,64.87,19.53,65.65Z"/>
        <path class="st11" d="M861.87,1971.03c212.78,12.1,325.72-47.14,325.72-47.14,0,0,5.96-4.87,9.43-16.14-80.08,36.51-169.57,51.98-257.28,45.26-23.99-1.78-47.86-5.27-71.37-10.43v-.04c83.24,13.61,128.23,5.78,138.66,3.43-14.71,2.99-93.18,16.1-153.66-34.47-.26-1.43-.56-2.81-.82-4.24.22.17.45.34.71.5,28.11,21.6,65.98,30.06,100.6,22.42-55.68-15.12-84.45-52.83-108.52-118.07-.22,1.87-.36,3.67-.5,5.51-2.13,28.83-1.19,58.9,6.07,87.05-.21-.31-.43-.66-.65-.97-2.63.56-5.25,1.11-7.92,1.68,4.93,44.21,5.25,64.87,19.53,65.65Z"/>
      </g>
      <g id="Right_Leg" data-limb="leg-r" data-pivot="500 1180">
        <path class="st83" d="M547.42,1567.83c-11.29,29.83-31.24,63.22-60.11,78.38-58.76,15.06-128.44-2.3-188.04-35.73-21.99-12.33-42.61-26.86-60.81-42.74-7.75-36.21,19.27-60.99,19.27-60.99,163.53-109.92,213.37-82.92,300.89,12.29.09,10.29-3.6,28.73-11.2,48.79h0Z"/>
        <path class="st12" d="M547.42,1567.83c-72.92,23.32-191.52,4.81-199.51-80.73-63.32,26.55-70.91,76.65-48.65,123.38-21.99-12.33-42.61-26.86-60.81-42.74-7.75-36.21,19.27-60.99,19.27-60.99,163.53-109.92,213.37-82.92,300.89,12.29.09,10.29-3.6,28.73-11.2,48.79h0Z"/>
        <path class="st81" d="M229.87,1447.73c-23.66-3.97-61.78-.62-76.65,23.3-19.98,32.14-20.23,105.65-21.31,150.39-5.11,211.01,200.99,240.99,217.44,85.85,12.06-113.78-53.06-143.41-74.81-225.75-6.19-19.69-16.38-29.03-44.66-33.78h0Z"/>
        <path class="st86" d="M311.57,1769.95c-25.03,27.49-77.49,24.8-109.04-4.05-54.56-49.91-63.99-232.7-20.88-292.07,10-13.78,56.27-21.6,85.28-16.25,9.95,1.83,17.88,5.22,21.6,10.45,15.52,21.79,34.75,84.09,45.57,145.91,14.67,83.88,11.37,118.76-22.54,156.01h0Z"/>
        <path class="st13" d="M323,1699.56c-4.85,6.53-16.35,8.27-20.72,1.41-9.55,30.58-55.45,32.17-67.08,2.29-24.52,1.09-56.2-32.3-23.67-45.99-43.18-23.27-27.59-78.47,6.1-55.68.67-6.18,1.37-12.38,2.03-18.55-28.51-47.07-.17-107.87,47.26-125.45,9.95,1.83,17.88,5.22,21.6,10.45,15.52,21.79,36.2,83.85,45.57,145.91-5.55,3.32-11.64,6.18-18.23,8.46,3.19,9.97,6.38,19.91,9.57,29.88-3.34,14.82,7.45,33.65-2.45,47.29h0Z"/>
        <path class="st89" d="M232.93,1576.62c-10.88,43.04-17.31,114.35,13.66,133.85,10.54,7.32,35.12,8.97,43.43-.81,34.57-40.68,49.45-104.56-57.09-133.04h0Z"/>
        <path class="st87" d="M217.58,1566.07c6.98,21.96,115.77,69.09,167.53,84.48,10.48,3.14,18.62,4.96,23.1,4.99l5-4.93c-16.28-13.38-54.03-36.8-68.65-69.7-22.58-50.9-26.92-96.25-4.68-122.29l17.84-6.12c.48-.22-2.97-4.99-3.09-5-11.68.92-23.41,3.2-34.59,6.13-37.92,9.96-69.23,27.8-69.26,27.82-23.36,16.79-45.96,44.36-33.19,84.63h0Z"/>
        <path class="st16" d="M408.21,1655.54c-26.65-.24-182.25-63.08-190.62-89.45-12.79-40.29,9.83-67.85,33.2-84.63-30.92,31.78-31.83,55.24,8.01,73.24,19.48,8.8,55.54,33.14,67.57-6.08,0,0,23.54,85.75,81.85,106.92h0Z"/>
        <path class="st88" d="M326.08,1653.05c-.93,6.19-4.53,10.44-11.98,8.69-23.47-8.14-109.91,12.95-113.28-33.51-.26-3.51.14-6.5,1.12-9.03,10.52-28.04,88.75-1.53,110.45,5.08,8.71,1.31,15.26,18,13.69,28.78Z"/>
        <path class="st15" d="M326.08,1653.05c-.93,6.19-4.53,10.44-11.98,8.69-23.47-8.14-109.91,12.95-113.28-33.51-.26-3.51.14-6.5,1.12-9.03.07,8.55,4.36,16.98,13.13,20.97,11.27,5.43,24.51,1.34,36.98.11,22.12.6,51.11,2.67,74.04,12.78h0Z"/>
        <path class="st90" d="M306.8,1697.05c-28.33-2.35-57.75.21-85.57-4.99-12.06-7.34-13.62-29.51-3.3-39.5.25-.06.49-.1.74-.14,31.18-6.47,73.1-.03,95.44,9.32,2.7,4.68,7.21,16.7,6.32,25.45-.64,6.5-4.23,11.18-13.63,9.87h0Z"/>
        <path class="st14" d="M306.8,1697.05c-28.33-2.35-57.75.21-85.57-4.99-12.06-7.34-13.62-29.51-3.3-39.5.25-.06.49-.1.74-.14-.9,2.54-1.46,5.22-1.6,7.95-.46,9.2,4.65,18.91,13.24,22.15,6.29,2.38,13.26,1.14,19.93.28,21-2.79,42.49-1.9,63.19,2.63,2.35.5,4.68,1.08,7,1.76-.64,6.5-4.23,11.18-13.63,9.87Z"/>
        <path class="st79" d="M227.54,1595.5c-8.26-9.82,7.71-55.98,19.02-43.87,56.05,59.99,119.13,66.23,96.74,73.74-35.45,11.89-97.51-8.16-115.77-29.87h0Z"/>
        <path class="st80" d="M327.49,1449.99c65.32,53.04,148.6,137.35,238.06,97.38,1.06-2.97,2.05-5.95,3.1-8.92,25.16-73.12,50.9-145.53,84.66-224.31h.03c3.74-8.79,7.61-17.68,11.61-26.66,1.15-2.59,2.3-5.18,3.48-7.8,5.95-13.24,12.12-26.73,18.61-40.38,6.01-37.89-33.31-23.28-69.98-49.24-1.76-1.21-3.55-2.43-5.34-3.64l-.19-.13c-1.57-1.02-3.13-2.01-4.7-3.04-.03,0-.03-.03-.06-.03-.16-.1-.29-.19-.45-.29-.13-.06-.29-.16-.45-.29-1.44-.9-2.94-1.76-4.41-2.62-.48-.29-.96-.58-1.44-.86-.22-.13-.48-.29-.7-.42-1.06-.61-2.14-1.21-3.17-1.82-.7-.38-1.38-.77-2.08-1.12-1.12-.64-2.24-1.25-3.36-1.82-.54-.29-1.09-.58-1.6-.86-.93-.45-1.82-.93-2.75-1.41-.93-.45-1.85-.93-2.78-1.37-.22-.13-.51-.26-.74-.35-.61-.29-1.21-.58-1.82-.9-.77-.35-1.53-.74-2.3-1.06-.29-.16-.64-.29-.93-.45-.61-.29-1.22-.58-1.82-.83-.29-.13-.58-.26-.86-.38-.86-.42-1.73-.77-2.59-1.15l-1.34-.58c-.48-.22-.96-.42-1.47-.61-1.15-.51-2.33-.99-3.49-1.44-.42-.22-.8-.38-1.21-.51-1.44-.61-2.88-1.15-4.32-1.69-1.41-.54-2.81-1.05-4.25-1.6-.19-.06-.38-.13-.58-.19-1.63-.58-3.29-1.15-4.92-1.73-1.25-.42-2.46-.83-3.71-1.25-.19-.03-.35-.1-.54-.16-.16-.06-.29-.1-.45-.16-.38-.13-.8-.22-1.15-.35-1.76-.54-3.45-1.09-5.15-1.57-.26-.1-.54-.16-.8-.22-1.82-.54-3.61-1.06-5.43-1.53h-.03c-.16-.03-.32-.1-.48-.13-1.92-.51-3.84-.99-5.76-1.47-.06,0-.13,0-.22-.03-193.01-50.93-146.43,190.9-199.72,299.99h0Z"/>
        <path class="st48" d="M449.29,1216.39c-58.35,95.34-57.52,215.38-75.21,272.29l16.2,12.68c30.97-152.89,29.96-245.24,115.3-338.83-.15,0-.3,0-.44,0-23.4-.26-43.61,33.89-55.83,53.85Z"/>
        <path class="st47" d="M420.56,1193.04c-58.35,95.34-58.09,214.34-75.79,271.26l15.76,13.21c30.97-152.89,30.97-244.73,116.3-338.32-.15,0-.3,0-.44,0-23.4-.26-43.61,33.89-55.83,53.85h0Z"/>
        <path class="st19" d="M327.49,1449.99c65.32,53.04,148.6,137.35,238.06,97.38.74-1.34,1.5-2.65,2.24-3.96.48-1.79.74-3.45.86-4.96-54.38,5.28-162.25,21.48-193.65-130.92,0,0,2.94-77.31,30.09-137.09,104.83,54.35,160.5-1.95,259.86,17.04,1.15-2.59,2.3-5.18,3.48-7.8,5.95-13.24,12.12-26.73,18.61-40.38,6.01-37.89-33.31-23.28-69.98-49.24-1.76-1.21-3.55-2.43-5.34-3.64l-.19-.13c-1.57-1.02-3.13-2.01-4.7-3.04-.03,0-.03-.03-.06-.03-.16-.1-.29-.19-.45-.29-.13-.06-.29-.16-.45-.29-1.34-.8-2.69-1.6-4-2.43-.13-.06-.29-.13-.42-.19-.48-.29-.96-.58-1.44-.86-.22-.13-.48-.29-.7-.42-1.06-.61-2.14-1.21-3.17-1.82-.35-.22-.74-.42-1.06-.61-.32-.16-.67-.35-1.02-.51-1.12-.64-2.24-1.25-3.36-1.82-.54-.29-1.09-.58-1.6-.86-.93-.45-1.82-.93-2.75-1.41-.93-.45-1.85-.93-2.78-1.37-.22-.13-.51-.26-.74-.35-.61-.29-1.21-.58-1.82-.9-.77-.35-1.53-.74-2.3-1.06-.29-.16-.64-.29-.93-.45-.32-.16-.61-.29-.93-.45-.32-.13-.61-.26-.9-.38-.29-.13-.58-.26-.86-.38-.86-.42-1.73-.77-2.59-1.15l-1.34-.58c-.48-.22-.96-.42-1.47-.61-1.15-.51-2.33-.99-3.49-1.44-.42-.22-.8-.38-1.21-.51-1.44-.61-2.88-1.15-4.32-1.69-.32-.16-.67-.29-1.02-.42-1.09-.38-2.17-.8-3.23-1.18-.19-.06-.38-.13-.58-.19-1.28-.45-2.56-.9-3.84-1.37-.35-.13-.74-.26-1.09-.35-1.25-.42-2.46-.83-3.71-1.25-.19-.03-.35-.1-.54-.16-.16-.06-.29-.1-.45-.16-.38-.13-.8-.22-1.15-.35-1.76-.54-3.45-1.09-5.15-1.57-.26-.1-.54-.16-.8-.22-1.82-.54-3.61-1.06-5.43-1.53h-.03c-.16-.03-.32-.1-.48-.13-1.92-.51-3.84-.99-5.76-1.47-.06,0-.13,0-.22-.03-1.73-.42-3.42-.8-5.15-1.15-.74-.16-1.47-.35-2.17-.45-1.5-.35-3.01-.64-4.48-.9l-.13-.03c-1.34-.26-2.72-.51-4.12-.74-.54-.1-1.09-.16-1.63-.22-1.57-.29-3.13-.51-4.7-.74-.45-.06-.9-.13-1.37-.16-1.79-.26-3.58-.45-5.37-.64-.86-.06-1.73-.13-2.56-.22-.58-.06-1.18-.13-1.79-.16-1.25-.1-2.43-.19-3.65-.26-1.31-.1-2.65-.16-3.96-.19-.89-.03-1.82-.1-2.72-.06-.19,0-.38,0-.58-.03-.77,0-1.57-.03-2.37-.03-9.56-.03-18.54.83-26.76,2.59-.8.19-1.57.38-2.33.54-.74.19-1.47.38-2.17.54-.06.06-.19.06-.26.1-.74.19-1.47.42-2.14.64-.77.22-1.5.45-2.24.7-.74.22-1.44.48-2.14.74-1.06.42-2.11.8-3.1,1.25-.86.35-1.69.7-2.49,1.09-.26.13-.51.22-.7.35-.9.45-1.82.9-2.65,1.37-.93.48-1.85,1.02-2.75,1.6-84.34,51.28-61,224.44-103.24,294.46h0Z"/>
        <path class="st22" d="M764.14,1255.67c-1.61-1.02-3.25-2-4.89-2.97,3.28.7,5.1,1.67,4.89,2.97Z"/>
      </g>
      <g id="Left_Hand" data-limb="arm-l" data-pivot="740 690">
        <path class="st57" d="M761.36,997.13c1.93-5.41,3.63-10.87,5.15-16.37v-.03c.48-1.82.97-3.63,1.46-5.45.04-.25.13-.49.2-.75.39-1.71.81-3.43,1.24-5.16,1.75-7.56,3.17-15.17,4.3-22.84.03-.11.02-.21.05-.33.3-1.88.55-3.78.78-5.67.49-3.66.91-7.35,1.25-11.05.4-4.2.72-8.41.98-12.62.1-1.84.21-3.69.28-5.52.08-1.73.17-3.43.22-5.16.1-2.79.15-5.61.2-8.42,0-1.37,0-2.76.01-4.13.02-1.98,0-3.95,0-5.93,132.41-139.62,216.08-348.73,198.77-541.55-.03-.09-.08-.21-.14-.29-16.14-35.42-59.81-47.18-98.05-54.81,13.49,154.95-81.5,290.92-170.47,409.45-.57.76-1.12,1.5-1.69,2.26-.99,61.18,5.98,120,19.47,177.86,9.16,39.14,21.29,77.84,36,116.51h0Z"/>
        <path class="st23" d="M761.36,997.13c1.93-5.41,3.63-10.87,5.15-16.37v-.03c.48-1.82.97-3.63,1.46-5.45.04-.25.13-.49.2-.75.39-1.71.81-3.43,1.24-5.16,1.75-7.56,3.17-15.17,4.3-22.84.03-.11.02-.21.05-.33.27-1.87.52-3.77.78-5.67.49-3.66.91-7.35,1.25-11.05.4-4.2.72-8.41.98-12.62.1-1.84.21-3.69.28-5.52.08-1.73.17-3.43.22-5.16.1-2.79.15-5.61.2-8.42,0-1.37,0-2.76.01-4.13.02-1.98,0-3.95,0-5.93,132.41-139.62,216.08-348.73,198.77-541.55-.03-.09-.08-.21-.14-.29-4.25-5.35-8.67-10.61-13.29-15.75,15.56,296.86-96.96,394.99-168.41,457.08-8.76-43.3-30.26-77.93-62.61-117.48-.57.76-13.63,16.66-14.2,17.42-.99,61.18-5.71,135.63,7.78,193.49,9.16,39.14,21.29,77.84,36,116.51h0Z"/>
        <path class="st58" d="M882.15,396.62c18.25,10.35,44.58,13.2,80.85,2.44,52-17.19,59.58-56.85,46.57-115.05-1.65-7.36-3.64-14.98-5.89-22.94-34.89-32.03-112.45,6.98-112.45,6.98-44.29-7.78-65.72,96.45-9.09,128.58Z"/>
        <path class="st21" d="M882.15,396.62c18.25,10.35,44.58,13.2,80.85,2.44,52-17.19,59.58-56.85,46.57-115.05-.24-.01-.47,0-.7.05,13.84,59.09-17.71,108.21-63.53,106.85,19.39-34.88.33-54.56-30.23-55.48-21.91-2.43-22.73,25.98-29.5,40.73-2.64,6.52-3.98,13.73-3.47,20.46Z"/>
        <path class="st49" d="M854.39,336.83c13.03,2.09,36.78-3.66,36.78-3.66,17.22,5.2,47.98-2.05,47.98-2.05,0,0,60.64-.14,65.84-3.21,5.37-12.44,7.77-31.27,8.37-48.9,0-.07.03-.11,0-.17.78-22.5-1.32-43.02-3.82-45.84-3.06-3.41-19.23-8.08-30.44-8.76-.7-.05-.98-6.73-2.73-10.1-.21-.4-.49-.77-.82-1.13-5.52-5.94-26.72-4.2-41.43-1.41-.67.11-2.39-9.75-6-12.88-.21-.2-.48-.37-.81-.52-9.92-5.11-54.16,1.39-56.47,6.43-.38.82-.62,1.73-.78,2.7-.86,4.61.17,10.36.17,10.36-.1,0-.2,0-.29.04-13.55,1.14-38,7.83-44.76,16.41-2.11,2.69,2.24,22.92,9.36,46.91,5.54,18.47,12.72,39.2,19.85,55.79Z"/>
        <path class="st20" d="M849.85,325.8c1.52,3.84,3.03,7.5,4.54,11.04,13.03,2.09,36.78-3.66,36.78-3.66,19.13,3.06,47.98-2.05,47.98-2.05,0,0,60.64-.14,65.84-3.21,3.2-7.41,5.38-17.14,6.67-27.53.94-6.99,1.46-14.27,1.71-21.37-.18,1.19-.33,2.34-.51,3.53-10.17.13-20.3.28-30.46.45,1.81-14.8-.76-39.92-3.29-58.75-.7-.05-.98-6.73-2.73-10.1-.21-.4-.49-.77-.82-1.13.18,19.93.12,56.88-2.69,76.75-9.41,1.55-22.97.62-31.03-.91-.35-25.93-2.25-52.01-7.72-77.25-.67.11-2.39-9.75-6-12.88-.21-.2-.48-.37-.81-.52,3.35,27.15,4.25,56.25,2.93,82.49-14.34,2.24-28.12,2.1-42.82,2.33-9-24.18-8.36-51.51-17.36-75.69-.86,4.61.17,10.36.17,10.36-.1,0-.2,0-.29.04,2.85,20.24-3.89,43.68-1.05,63.9-11.23.59-22.87-.41-34.35-.58,4.38,14.57,9.76,30.51,15.31,44.75h0Z"/>
        <path class="st27" d="M853,333.07c12.89,1.71,36.58-4.19,36.58-4.19-.31,1.39.77,5.25,2.34,5.89,4.65,1.9,36.07,3.73,42.67-1.48,1.69-1.33,2.52-7.67,2.52-7.67,0,0,60.33-.97,65.56-3.98,3.32-7.07,5.68-16.32,7.17-26.17-5.89,10.48-19.6,16.55-31.41,12.87,1.25-13.92,1.07-39.78-.37-53.03-1.71,18.95-3.42,37.93-5.12,56.91-11.2,1.5-29.52,3.48-40.68,2.41,1.08-18.62,2.19-42.18-.12-58.65-1.2,21-3.44,41.01-3.86,60.15-12.34,4.51-29.4,2.96-42.08.62-3.33-18.95-9.92-37.5-13.22-56.46,2.34,18.77,6.91,37.29,7.18,56.25-14.6,5.41-21.58,2.28-31.32-8.74-.83,5.61-.84,10.57-.12,14.94,1.43,3.6,2.86,7.04,4.29,10.35h0Z"/>
        <path class="st60" d="M819.56,359.22v.03c18.51,27.29,52.23,57.09,106.08,46.51,8.55-1.68,17.95-14.07,20.1-28.42.78-5.02.62-10.25-.75-15.36-4.15-15.64-19.9-30.01-57.13-32.39-11.79-.74-17.83-4.95-22.89-5.82,30.79-25.2,54.14-60.53,22.26-83.45-1.62-1.17-3.37-2.3-5.3-3.4-3.88-2.22-8.37-4.31-13.53-6.23-1.86-.71-4.67.19-6.68,1.57-.76.52-1.39,1.13-1.85,1.74-.95,1.3-1.9,2.61-2.8,3.86-14.53,19.96-25.9,34.23-34.47,45.02-18.39,23.16-23.88,30.35-19.72,43.23,2.31,7.12,7.67,19.83,16.68,33.11Z"/>
        <path class="st26" d="M819.58,359.25c18.5,27.29,52.22,57.09,106.07,46.51,8.55-1.68,17.95-14.07,20.1-28.42-30.36,34.04-84.62,11.76-126.17-18.09h0Z"/>
        <path class="st30" d="M887.87,329.59c-11.79-.74-17.83-4.95-22.89-5.82,30.79-25.2,54.14-60.53,22.26-83.45,8.75,28.4-1.04,61.77-24.04,80.76-14.08.52-28.21,1.01-42.29,1.53,44.89,13.22,105.81-.61,124.08,39.37-4.15-15.64-19.9-30.01-57.13-32.39h0Z"/>
        <path class="st28" d="M824.33,282.75c4.95,2.57,9.89,5.12,14.84,7.69,16.31-11.25,27.62-29.46,30.37-48.97-3.88-.74-7.76-1.48-11.64-2.21-14.15,19.28-25.23,33.07-33.57,43.49Z"/>
      </g>
      <g id="Rest_of_Body" data-limb="torso" data-pivot="610 1200">
        <path class="st63" d="M624.15,875.55c-60.95-7.71-161.04-79.35-187.87-130.71-22.35-42.85-8.09-81.65-8.09-81.65,15.21-2.66,35.4-5,61.79-7.12-7.83-22.86-14.3-49.15-19.2-72.77-7.6-36.46-11.52-66.57-11.39-67.94h.03c53.36-1.79,181.7-19.86,181.7-19.86,1.36,17.2,2.15,34.08,2.61,50.71,1.09,37.61.73,73.91,2.6,109.51,1.83.31,3.63.65,5.39,1.02,10.18,2.01,19.53,4.53,28.08,7.44,3.23,1.09,6.33,2.24,9.32,3.47,123.45,49.78,53.58,192.49-64.98,207.91h0Z"/>
        <path class="st29" d="M688.32,743.91c-13.46,28.86-42.76,49.7-74.42,52.99,26.31-13.43,42.01-42.58,45.49-71.89,1.79-15.34.7-30.74-2.19-45.91-46.71,26.85-102.43,34.99-152.13,7.91,9.31,55.3,60.86,100.49,116.92,102.47-98.3,34.47-192.1-36.99-193.8-126.29,15.21-2.66,35.4-5,61.79-7.12-7.83-22.86-14.3-49.15-19.2-72.77,45.34-38.23,113.87-51.68,172.95-37.09,1.09,37.61.73,73.91,2.6,109.51,1.83.31,3.63.65,5.39,1.02,10.18,2.01,19.53,4.53,28.08,7.44,3.23,1.09,6.33,2.24,9.32,3.47,10.29,24.04,10.27,52.5-.82,76.26h0Z"/>
        <path class="st62" d="M828.3,1268.07c-57.77-8.09-111.1-7.61-162.64-6.78-2.3,0-4.48.03-6.55.1-.1-.03-.19-.03-.32,0-94.73,1.44-197.71,43.42-298.1-8.7-3.16-6.52-5.11-21.04-3.64-31.17.54-3.68,11.41-13.81,11.89-17.58,16.21-129-1.28-325.56,3.1-457.92.83-25.42,5.72-31.69,8.57-51.45.38-2.75,22.35-25.54,22.8-28.19,0,0,38.49-4.35,65.96-10.29,5.02-1.05,48.5,143.9,131.69,152.22,61.22,6.14,73.89-92.08,64.36-133.7-1.79-7.86-4.76-15.57-8.79-23.05,8.76-.99,16.98-.96,24.2-.51,15.92.96,37.05,5.24,37.05,5.24,70.02,94.19,87.38,281.35,97.83,418.25,2.88,37.98,4.16,88.94,6.04,132.11.16,3.68,12.6,16.24,12.6,16.24.99,8.98-1.76,30.4-6.04,45.21h0Z"/>
        <path class="st61" d="M712.69,657.89c6.96-.29,13.91-.59,19.81-.3,62.51,111.72,84.02,243.24,80.18,369.86-44.73-112.49-77.61-229.68-100-369.56Z"/>
        <path class="st64" d="M462.1,657.56c4.99-1.07,11.68-3.39,17-4.56,24.55,71.89,50.16,131.57,133.73,133.99,61.79,1.79,56.12-112.48,43.79-135.45,8.74-.99,16.97-.97,24.18-.5,27.71,103.02-21.79,155.52-62.11,161.7-40.66,6.24-132.81-14-156.59-155.18h0Z"/>
        <path class="st17" d="M513.13,1203.14c61.33-22.72,170.49-29.85,230.34,4.57-47.94,63.61-177.1,16.05-230.34-4.57ZM834.35,1222.86s-12.44-12.56-12.6-16.24c-1.89-43.16-3.17-94.12-6.04-132.11-20.17,32.87-38.49,126.32-74.88,115.06-134.7-41.75-141.95,13.59-231.95-49.62-57.45-40.28-68.07-266.54-94.57-368.85-8.57-33.12-13.53-67.07-23.25-87.81-10.26,16.27-14.22,34.29-19.02,62.72-4.38,132.36,13.11,328.92-3.1,457.92-.48,3.77-11.35,13.91-11.89,17.58-1.47,10.13.48,24.65,3.64,31.17,100.39,52.11,203.37,10.13,298.1,8.7.13-.03.22-.03.32,0,2.08-.06,4.25-.1,6.55-.1,51.54-.83,104.87-1.31,162.64,6.78,4.28-14.8,7.03-36.22,6.04-45.21h0Z"/>
        <path class="st73" d="M366.23,721.55c2.84-19.24,33.3-50.2,40.45-47.21,40.12,44.16,64.04,240.14,29.19,360.27-56.87-82.22-88.71-183.87-69.64-313.06h0Z"/>
      </g>
      <g id="Face" data-limb="head" data-pivot="514 655">
        <path class="st74" d="M731.25,397.31c6.71-6.37,9.56-15.67,14.11-23.73s12.66-15.7,21.79-14.25c6.83,1.09,11.89,6.99,15.05,13.14,8.91,17.33,7.19,38.93-1.74,56.26-8.93,17.32-24.33,30.67-41.4,40.07,3.83-21.21.76-43.6-7.81-71.49Z"/>
        <path class="st45" d="M745.45,407.68c3.95-12.07,9.84-23.51,17.37-33.74,10.16,6.61,14.22,21.16,8.94,32.08-.6-6.8-8.25-12.01-14.8-10.08.37,2.62-.01,5.34-1.08,7.75,1.65-.6,3.55.32,4.61,1.72,1.06,1.4,1.46,3.18,1.79,4.91,1.42,7.4,2.03,14.96,1.83,22.49-.09,3.48-.64,7.46-3.55,9.37-3.31,2.18-7.75.44-11.06-1.75-2.82-1.87-5.5-4.13-7.07-7.12-1.57-2.99-3.04-7.2,3-25.64h0Z"/>
        <path class="st76" d="M718.84,601.54c-41.49,54.8-100.73,73.45-157.87,68.16-61.16-5.75-119.91-38.98-151.87-85.04-57.08-82.36-80.7-228.67-80.39-239.25.85-28.53-6-22.69,4.87-49.04,9.5-23-2.2-53.03,17.34-68.34,10.89-8.58,22.11-16.86,33.67-24.67,34.07-23.01,71.07-41.6,111.25-49.93,53.66-11.11,113.81-1.39,154.39,35.39,5.14-4.88,20.52,7.7,47.99-5.73,22.24,69.56,42.36,127.53,52.95,201.14,10.59,73.61,12.55,157.95-32.33,217.31h0Z"/>
        <path class="st77" d="M636.81,567.95c.56.02,1.1.04,1.66.06-.54.19-1.05.37-1.59.52-26.5,8.51-56.07,6.62-81.53-5.28-25.94-12.14-47.37-34.57-58.82-61.61.16.07.34.13.49.17,51.43,19.72,98.07,20.04,142.4,10.6-8.02,8.96-11.22,23.84-9.58,37.39.8,6.64,2.77,12.96,5.93,18.1.36.01.68.03,1.04.05Z"/>
        <path class="st75" d="M603.35,570.55c-13.11.51-26.31-1.36-38.81-5.69-17.01-5.86-32.6-16.18-45.13-29.59,20.21,2.91,27,3.88,33.92,13.13,9.87-4.39,28.41-1.13,50.03,22.15Z"/>
        <path class="st92" d="M496.33,501.65c47.7,3.59,95.39,7.18,143.09,10.77-18.83,16.53-46.48,20.23-70.88,14.56-24.4-5.67-46.09-19.58-72.21-25.33h0Z"/>
        <path class="st18" d="M560.97,669.7c-61.16-5.75-119.91-38.98-151.87-85.04-57.08-82.36-80.7-228.67-80.39-239.25.85-28.53-6-22.69,4.87-49.04,9.5-23-2.2-53.03,17.34-68.34,10.89-8.58,22.11-16.86,33.67-24.67.39-.18.86-.36,1.34-.54-26,255.26,19.29,428.37,175.04,466.88h0Z"/>
        <path class="st78" d="M758.75,332.46c1.73,30.27.68,60.58-3.39,89.71-6.87-22.92-13.73-45.83-20.59-68.75-.7-2.33-1.4-4.64-2.09-6.97-9.47-31.61-18.93-63.23-28.4-94.84-4.65-15.52-9.36-31.37-10.6-47.98-1.25-16.61-7.53,38.71,2,7.64,34.82,32.14,53.4,31.49,60.44,91.07,1.18,10.01,2.06,20.06,2.63,30.11h0Z"/>
        <path class="st6" d="M758.75,332.46c-7.23,8.74-15.32,15.81-23.98,20.97-3.34,2.01-6.78,3.73-10.28,5.14,2.74-4.01,5.49-8.02,8.19-12.11,5.81-8.72,11.4-17.77,16.33-27.7,2.6-5.21,4.99-10.68,7.11-16.41,1.18,10.01,2.06,20.06,2.63,30.11Z"/>
        <path class="st51" d="M435.5,432.42c-9.5-27.67-8.26-65.28,4.11-83.72,8.85-13.19,24.73-12.1,40.49-14.09,11.99-1.51,22.76-2.75,34.24,1.04,26.26,8.66,30.19,17.12,32.43,36.42,2.24,19.3-.06,39.13,4.48,58.03-32.71-16.77-92.16-32.84-115.76,2.32h0Z"/>
        <path class="st50" d="M610.71,424.91c-2.31-15.45-18.18-39.76-.3-91.9,2.81-8.18,18.11-20.63,34.28-21.21,12.05-.43,42.39-.9,50.28,8.21,7.91,9.14,17.62,42.15,15.34,69.84-11.86-11.68-38.65,13.19-55.25,14.3-16.61,1.11-32.58,9.62-44.35,20.76Z"/>
        <path class="st52" d="M378.28,284.21c-1.28-.02-2.52-.06-3.71-.1-4.67-.14-9.71.47-14.97,1.56-6.3,1.31-12.91,3.33-19.61,5.64-6.05,2.08,18.99,17.13,13,19.33-34.02,12.47-64.43,21.72-59.36-31.18.15-1.55-22.34-10.21-48.65,7.52,6.36-17.77,30.55-24.53,49.01-19.34-28.44-12.5-38.88-51.19-17.54-89.97.26,39.67,19.96,80.42,20.58,81.7-.36-2.62-50.17-152.79,132.76-188.49,101.34-19.77,161.34-4.8,241.65-70.87-6.56,20.34,1.68,58.45-15.99,70.46,29.2-7.62,57.25-19.66,82.9-35.59.5,3.15.94,6.24,1.34,9.29.71,5.4,1.25,10.67,1.6,15.85,1.13,16.77.17,32.59-4.2,48.33-2.43,8.78-5.94,17.53-10.74,26.4,3.72.31,7,.23,9.96-.16,6.05-.75,10.74-2.73,14.77-5.06-4.43,14.57-5.03,22.84-12.63,33.27-1.24,1.69-2.65,3.45-4.31,5.29,4.38-.97,7.51.14,11.92.16,2.02.02,4.28-.19,7.07-.92,3.95,118.94-284.23,119.39-374.85,116.88h0Z"/>
        <path class="st7" d="M736.31,134.59c-15.93,23.09-37.9,42.37-62.48,56.09-41.26,23.03-89.22,31.68-136.45,32.53,11.54-3.83,22.35-9.83,31.72-17.58-40.48.31-81.97.83-119.8,15.24-30.37,11.57-58.3,34.13-71.02,63.34-1.28-.02-2.52-.06-3.71-.1-4.67-.14-9.71.47-14.97,1.56-.14-.8-.27-1.64-.38-2.52-4.25-35.19,13.82-72.07,44.23-90.28,35.1-21.03,79.06-16.61,119.94-14.84,40.89,1.77,87.11-2.11,113.66-33.26-7.67,12.69-15.34,25.36-23.01,38.03,46.43-13.88,89.15-39.87,123.05-74.45-2.43,8.78-5.94,17.53-10.74,26.4,3.72.31,7,.23,9.96-.16h0Z"/>
        <path class="st4" d="M741.29,60.02c-13.59,16.22-29.96,30.03-48.53,40.19-35.99,19.66-78.13,24.84-119.15,25.4-41.02.56-82.14-3.13-123.02.38-40.86,3.53-51.43,27.82-82.34,54.77-30.93,26.96-48.52,71.78-34.99,110.51-24.36-15.02-22.19-66.38.9-103.05,23.09-36.65,32.2-72.6,74.03-83.88,41.82-11.28,85.67-11.99,128.99-12.58,43.31-.58,87.15-1.16,129.03-12.23,26.37-6.97,52.15-18.61,73.49-35.35.71,5.4,1.25,10.67,1.6,15.85h0Z"/>
        <path class="st54" d="M625.32,302.63c-28.38,22.81-43.39,112-24.08,126.96,5.51,4.27,9.68,6.03,16.63,6.56,6.05.46,12.13,2.25,16.92,5.98,4.79,3.73,8.12,9.58,7.94,15.64-.26,8.89-7.57,15.98-15.26,20.45-9.37,5.44-21.14,8.49-31.02,4.04-11.06-4.98-16.4-17.62-18.84-29.5-7.42-36.06-39.31-138.6,47.71-150.12h0Z"/>
        <path class="st56" d="M388.86,336.19c.55,3.6,1.02,7.23,1.42,10.86,1.08,9.85,1.58,19.75,1.55,29.62,0,6.91-.32,13.77-.9,20.62-2.59,31.67-10.97,62.36-25.01,89.05-6.58-23.38-24.08-42.9-44.55-49.35-5.23-6.83-12.73-16.76-20.77-28.73-10.67-15.87-22.27-35.3-30.65-55.72-9.43-22.94,18.61-38.91,23.16-60.76.81-13.79,45.68-22.89,89.66-7.45,1.14,2.92,3.11,32.16,6.09,51.86h0Z"/>
        <path class="st55" d="M371.45,457.19c-5.47-13.17-4.78-15.29-11.57-26.62-8.51-14.21-23.9-26.09-40.33-23.99-18.68,2.38-30.95,21.76-33.5,40.42-3.37,24.66,6.83,51.46,27.56,65.22,20.73,13.76,51.41,11.81,68.31-6.46-.23-2.65-9.33-46.67-10.46-48.56h0Z"/>
        <path class="st46" d="M366.71,483.97c-1.09-11.29-2.23-22.81-6.87-33.15s-13.49-19.49-24.66-21.43c-7.89-1.37-16.2,1.06-22.66,5.78-5.91,4.31-10.55,10.95-10.73,18.26,11.2-8.85,29.32-7.02,38.52,3.9-8.38-3.96-19.39-.2-24.15,7.76-4.76,7.95-3.19,18.95,3.13,25.73,6.32,6.78,16.69,9.19,25.58,6.57,8.89-2.62,16.1-9.89,21.84-13.42h0Z"/>
        <path class="st92" d="M443.05,432.65c36.88-3.8,59.2-1.92,108.56,1.42-2.43-15.2-8.79-29.17-19.98-39.73-11.2-10.56-26.94-16.6-42.22-14.68-17.23,2.16-32.49,14.46-39.5,30.35-7.01,15.88-6.62,14.78-6.86,22.65h0Z"/>
        <path class="st53" d="M520.66,410.25c-2.06-16.8-17.35-28.75-34.15-26.69-16.8,2.06-28.75,17.35-26.69,34.15s17.35,28.75,34.15,26.69c16.8-2.06,28.75-17.35,26.69-34.15Z"/>
        <path class="st36" d="M464.45,417.15c1.75,14.24,14.71,24.38,28.96,22.63,14.24-1.75,24.39-14.71,22.65-28.96-.12-.99-.3-1.96-.53-2.92-2.99-.03-5.98.03-8.97.17.06.35.13.73.17,1.1,1.21,9.85-5.8,18.82-15.65,20.03-9.81,1.2-18.75-5.74-20.03-15.5-2.26.6-4.52,1.28-6.75,1.99.04.49.08.98.14,1.46h0Z"/>
        <path class="st43" d="M504.37,408.94c-.98-8.02-8.29-13.73-16.31-12.75-8.02.98-13.73,8.29-12.75,16.31.98,8.02,8.29,13.73,16.31,12.75,8.02-.98,13.73-8.29,12.75-16.31Z"/>
        <path class="st92" d="M515.89,400.35c-.49-4-4.15-6.84-8.17-6.34-4.02.49-6.89,4.13-6.39,8.13.49,4,4.15,6.84,8.17,6.34,4.02-.49,6.89-4.13,6.39-8.13Z"/>
        <path class="st72" d="M535.55,398.4s-38.81-19.85-61.83-7.29c-18.99,10.36-26.16,20.95-30.67,41.54-.51-5-.57-11.18,3.84-25.18,6.28-19.91,28.54-32.16,48.59-32.9,19.53-.73,26.01,3.44,36.6,10.19.74.47,3.47,13.65,3.47,13.65Z"/>
        <path class="st92" d="M619.57,421.9c40.64-15.43,64.15-21.9,90.87-29.94.66-2.06.09-.79-6.38-14.59-6.19-13.19-21.14-21.25-35.7-20.66-14.56.59-28.22,9.1-36.53,21.07s-10.39,20.5-12.25,44.12Z"/>
        <circle class="st71" cx="658.28" cy="390.32" r="30.65"/>
        <path class="st37" d="M632.48,393.48c1.75,14.24,14.71,24.38,28.96,22.63,14.24-1.75,24.39-14.71,22.65-28.96-.12-.99-.3-1.96-.53-2.92-2.99-.03-5.98.03-8.97.17.06.35.13.73.17,1.1,1.21,9.85-5.8,18.82-15.65,20.03-9.81,1.2-18.75-5.74-20.03-15.5-2.26.6-4.52,1.28-6.75,1.99.04.49.08.98.14,1.46h0Z"/>
        <path class="st44" d="M672.41,385.28c-.98-8.02-8.29-13.73-16.31-12.75-8.02.98-13.73,8.29-12.75,16.31.98,8.02,8.29,13.73,16.31,12.75,8.02-.98,13.73-8.29,12.75-16.31h0Z"/>
        <path class="st92" d="M683.92,376.68c-.49-4-4.15-6.84-8.17-6.34s-6.89,4.13-6.39,8.13c.49,4,4.15,6.84,8.17,6.34,4.02-.49,6.89-4.13,6.39-8.13Z"/>
        <path class="st68" d="M697.9,368.49s-30.24-9.49-47.91-.27c-24.86,12.97-26.53,43.72-31.21,56.01-1.16-17.93,3.48-37.16,12.99-52.41,9.52-15.24,32.63-20.81,50.41-18.15,2.32.35,15.72,14.81,15.72,14.81h0Z"/>
        <path class="st5" d="M390.28,347.06c-30.39,5.82-59.8,16.87-86.95,32.78,24.44-3.41,49.05-6.83,73.86-4.95,4.87.37,9.77.95,14.64,1.79,0,6.91-.32,13.77-.9,20.62-30.95-.7-61.62,1.47-90.33,10.97-10.67-15.87-22.27-35.3-30.65-55.72,38.45-11.78,78.59-17.3,118.91-16.35.55,3.6,1.02,7.23,1.42,10.86h0Z"/>
        <path class="st67" d="M538.03,348.15c-4.93-13.39-12.57-25.77-22.33-36.19.65.2,1.3.41,1.95.61-2.06,1.4-4.13,2.8-6.19,4.2,1.89,3.66,3.79,7.33,5.68,10.99-5.74-7.81-13.9-13.81-23.06-16.97.59.34,1.17.68,1.76,1.02-19.4.74-38.71,3.86-57.36,9.24-2.29.66-4.69,1.42-6.33,3.16-1.84,1.94-2.4,4.73-2.85,7.36-1.99,11.69-3.39,23.48-4.18,35.3.87-6.67,5.81-12.27,11.69-15.52,5.88-3.25,12.65-4.48,19.32-5.35,29.16-3.79,58.72-1.49,81.88,2.14Z"/>
        <path class="st65" d="M605.87,343.13c2.2-13.07,4.4-26.15,6.59-39.22,4.47-.98,8.68-3.1,12.13-6.11-.5,5.89-6.59,22.68-7.09,28.57-.06-5.36,14.44-28.83,14.44-28.83,0,0,13.47-2.65,19.96-3.67,11.21-1.75,22.52-2.83,33.85-3.23,2.96-.1,6.27-.03,8.37,2.05,1.28,1.26,1.86,3.04,2.4,4.75,2.59,8.16,5.17,16.31,7.76,24.47-13.99-11-36.98-4.59-53.63,1.69-16.65,6.28-28.45,11.63-44.8,19.53h0Z"/>
      </g>
      <g id="Right_Hand" data-limb="arm-r" data-pivot="437 690">
        <path class="st59" d="M431.97,995.06c-3.22-4.76-6.24-9.62-9.08-14.56v-.03c-.93-1.64-1.85-3.27-2.78-4.91-.11-.24-.25-.44-.38-.68-.81-1.56-1.65-3.12-2.49-4.68-3.59-6.88-6.87-13.89-9.88-21.04-.05-.1-.08-.2-.13-.3-.76-1.75-1.48-3.52-2.17-5.29-1.39-3.42-2.72-6.89-3.97-10.39-1.43-3.97-2.8-7.96-4.1-11.98-.56-1.76-1.13-3.52-1.66-5.27-.51-1.66-1.02-3.28-1.5-4.94-.79-2.68-1.55-5.39-2.31-8.1-.35-1.32-.7-2.67-1.05-3.99-.52-1.91-1-3.83-1.48-5.74C225.86,791.1,92.52,609.59,61.03,418.57c0-.1.02-.22.06-.31,6.76-38.33,46.1-60.64,81.22-77.6,25.72,153.4,151.7,261.27,267.5,353.76.74.59,1.46,1.17,2.2,1.76,16.27,58.98,24.24,117.68,25.66,177.07.93,40.19-1.13,80.7-5.7,121.82Z"/>
        <path class="st25" d="M431.97,995.06c-3.22-4.76-6.24-9.62-9.08-14.56v-.03c-.93-1.64-1.85-3.27-2.78-4.91-.11-.24-.25-.44-.38-.68-.81-1.56-1.65-3.12-2.49-4.68-3.59-6.88-6.87-13.89-9.88-21.04-.05-.1-.08-.2-.13-.3-.73-1.74-1.45-3.52-2.17-5.29-1.39-3.42-2.72-6.89-3.97-10.39-1.43-3.97-2.8-7.96-4.1-11.98-.56-1.76-1.13-3.52-1.66-5.27-.51-1.66-1.02-3.28-1.5-4.94-.79-2.68-1.55-5.39-2.31-8.1-.35-1.32-.7-2.67-1.05-3.99-.52-1.91-1-3.83-1.48-5.74C225.86,791.1,92.52,609.59,61.03,418.57c0-.1.02-.22.06-.31,2.78-6.24,5.74-12.44,8.93-18.58,109.95,317.92,270.04,425.09,354.75,467.33,1.05-61.52-.22-121.73-14.96-172.59.74.59,1.46,1.17,2.2,1.76,16.27,58.98,24.24,117.68,25.66,177.07.93,40.19-1.13,80.7-5.7,121.82Z"/>
        <path class="st70" d="M164.75,443.89c-15.08,14.59-39.86,23.93-77.67,22.59-54.64-3.64-71.91-40.13-73.88-99.74-.24-7.54-.23-15.41-.04-23.68,25.76-39.74,110.61-21.38,110.61-21.38,40.93-18.62,87.76,76.93,40.98,122.21Z"/>
        <path class="st34" d="M164.75,443.89c-15.08,14.59-39.86,23.93-77.67,22.59-54.64-3.64-71.91-40.13-73.88-99.74.23-.07.46-.11.69-.12,1.38,60.67,44.23,100.34,88.24,87.55-27.5-28.92-13.97-52.74,15.38-61.28,20.61-7.83,28.51,19.46,38.76,32.06,4.19,5.66,7.28,12.3,8.48,18.94Z"/>
        <path class="st69" d="M176.67,379.05c-12.1,5.28-36.52,5.66-36.52,5.66.64,1.35.53,5.61-.83,6.7-4.05,3.23-34.14,14.1-41.81,10.53-1.97-.9-4.32-7.21-4.32-7.21,0,0-58.74,15.04-64.55,13.37-8.31-10.7-15.35-28.33-20.34-45.25-.03-.07-.05-.1-.05-.17-6.39-21.59-9.49-41.98-7.77-45.34,2.11-4.06,16.59-12.64,27.28-16.1.66-.22-.74-6.76.12-10.46.11-.44.28-.87.52-1.3,3.86-7.13,24.82-10.75,39.76-11.73.68-.06-.12-10.04,2.59-13.97.15-.24.37-.48.65-.71,8.33-7.42,53.28-11.51,56.77-7.21.57.7,1.04,1.52,1.43,2.42,1.98,4.25,2.43,10.08,2.43,10.08.1-.02.2-.04.29-.04,13.4-2.29,38.26-2.63,46.95,3.99,2.72,2.07,3.57,22.75,2.68,47.76-.74,19.27-2.51,41.13-5.26,58.98h0Z"/>
        <path class="st35" d="M178.3,367.23c-.51,4.09-1.06,8.02-1.63,11.82-12.1,5.28-36.52,5.66-36.52,5.66.64,1.35.53,5.61-.83,6.7-4.05,3.23-34.14,14.1-41.81,10.53-1.97-.9-4.32-7.21-4.32-7.21,0,0-58.74,15.04-64.55,13.37-4.95-6.38-9.5-15.25-13.34-24.98-2.66-6.53-4.98-13.45-7-20.27.47,1.11.91,2.18,1.37,3.29,9.88-2.42,19.73-4.81,29.6-7.19-5.45-13.88-9.25-38.84-11.51-57.7.66-.22-.74-6.76.12-10.46.11-.44.28-.87.52-1.3,4.81,19.34,14.12,55.1,21.81,73.64,9.5-.85,22.4-5.15,29.81-8.65-6.15-25.2-10.84-50.92-11.86-76.73.68-.06-.12-10.04,2.59-13.97.15-.24.37-.48.65-.71,3.55,27.12,9.96,55.52,17.8,80.6,14.44-1.42,27.75-5,42.04-8.45,2.66-25.66-4.3-51.27-1.64-76.93,1.98,4.25,2.43,10.08,2.43,10.08.1-.02.2-.04.29-.04,2.31,20.31,14.2,40.62,16.51,60.91,11.02-2.24,22.04-6.12,33.11-9.15-.59,15.2-1.82,31.98-3.63,47.16h0Z"/>
        <path class="st32" d="M177.07,375.06c-12.06,4.88-36.46,5.1-36.46,5.1.64,1.27.56,5.27-.79,6.28-4.03,3-33.99,12.64-41.68,9.24-1.97-.86-4.36-6.8-4.36-6.8,0,0-58.66,14.16-64.47,12.55-4.99-6.02-9.58-14.38-13.49-23.54,8.32,8.67,23.11,11.12,33.63,4.6-4.69-13.16-10.99-38.25-12.91-51.44,6.4,17.92,12.8,35.87,19.2,53.81,11.22-1.35,29.45-4.02,39.98-7.85-5.71-17.76-12.68-40.29-14.56-56.82,6.41,20.03,13.59,38.84,18.79,57.27,13.08,1.28,29.21-4.5,40.9-9.93-1.52-19.18.22-38.79-1.33-57.97,2.43,18.76,2.64,37.84,7.13,56.26,15.49,1.58,21.46-3.19,28.14-16.3,2.21,5.23,3.46,10.03,3.86,14.44-.48,3.84-1.01,7.53-1.56,11.09h0Z"/>
        <path class="st66" d="M215.99,392.01v.03c-11.08,31.05-36.27,68.34-91.06,71.57-8.69.51-20.9-9.13-26.57-22.48-2.01-4.67-3.17-9.76-3.12-15.06.11-16.18,11.76-34.04,47.21-45.66,11.23-3.66,16.03-9.26,20.7-11.36-36.12-16.69-67.56-45.06-42.44-75.22,1.28-1.54,2.69-3.07,4.29-4.62,3.2-3.12,7.02-6.27,11.54-9.42,1.63-1.15,4.57-.99,6.86-.15.87.31,1.63.74,2.22,1.22,1.25,1.02,2.49,2.05,3.68,3.04,19.06,15.69,33.64,26.66,44.63,34.96,23.6,17.82,30.72,23.41,29.91,36.92-.46,7.47-2.47,21.12-7.87,36.23h0Z"/>
        <path class="st33" d="M215.98,392.04c-11.08,31.05-36.27,68.34-91.06,71.57-8.69.51-20.9-9.13-26.57-22.48,37.92,25.35,84.87-9.79,117.63-49.09Z"/>
        <path class="st31" d="M142.44,380.41c11.23-3.66,16.03-9.26,20.7-11.36-36.12-16.69-67.56-45.06-42.44-75.22-1.36,29.68,16.47,59.55,43.48,72.18,13.77-3.02,27.57-6.08,41.33-9.1-40.16,24.03-102.59,25.89-110.29,69.16.11-16.18,11.76-34.04,47.21-45.66h0Z"/>
        <path class="st24" d="M192.24,319.17c-4.15,3.73-8.3,7.43-12.45,11.16-18.61-6.81-34.11-21.61-41.65-39.81,3.57-1.69,7.14-3.37,10.71-5.05,18.53,15.13,32.7,25.7,43.39,33.7Z"/>
      </g>
    </g>
  </g>
</svg>